<?xml version="1.0" encoding="utf-8"?>
<!-- Generator: Adobe Illustrator 16.0.0, SVG Export Plug-In . SVG Version: 6.00 Build 0)  -->
<svg xmlns="http://www.w3.org/2000/svg" xmlns:xlink="http://www.w3.org/1999/xlink" version="1.1" id="Layer_1" x="0px" y="0px" width="32px" height="32px" viewBox="0 0 32 32" style="enable-background:new 0 0 32 32;" xml:space="preserve">
<path d="M27.719,19.367l-3.82,0.55l-0.061-0.12c-1.069-1.8-2.93-4.08-3.96-5.219c2.61-1.87,8.051-6.07,8.86-6.879  c0.1-0.1,0.21-0.23,0.21-0.42c0-0.71-1.11-1.72-2.15-1.72c-0.729,0-8.239,2.21-12.061,3.34l-3.27-3.63  c-1.25-1.25-5.35-3.28-6.9-1.73c-1.57,1.57,0.5,5.67,1.73,6.9l3.63,3.27c-1.13,3.819-3.34,11.329-3.34,12.058  c0,1.04,1.01,2.15,1.72,2.15c0.18,0,0.32-0.11,0.42-0.21c0.81-0.81,5.01-6.25,6.88-8.86c1.14,1.03,3.421,2.891,5.221,3.96  l0.12,0.061l-0.55,3.82c0,0.739,1.13,1.279,1.72,1.279c0.15,0,0.3-0.06,0.42-0.189c0.25-0.24,0.69-1.05,1.101-1.92  c0.42-0.87,0.81-1.801,0.97-2.28c0.97-0.32,3.71-1.57,4.2-2.07c0.13-0.12,0.189-0.27,0.189-0.42  C28.998,20.497,28.458,19.367,27.719,19.367z M24.298,22.627l-0.479,0.16l-0.16,0.47c-0.13,0.41-0.49,1.28-0.92,2.17  c-0.39,0.83-0.66,1.29-0.8,1.5c-0.19-0.06-0.42-0.18-0.521-0.29l0.62-4.34l-0.76-0.38c-1.67-1-3.921-2.83-5.001-3.81l-0.831-0.75  l-0.65,0.909c-1.839,2.561-5.6,7.421-6.62,8.57c-0.24-0.189-0.59-0.67-0.59-1.07c0.04-0.39,0.64-2.789,3.3-11.778l0.18-0.601  l-4.1-3.689c-1.07-1.07-2.61-4.54-1.69-5.45c0.17-0.18,0.48-0.27,0.9-0.27c1.5,0,3.78,1.19,4.58,2l3.66,4.06l0.601-0.18  c8.992-2.66,11.391-3.26,11.811-3.3c0.37,0,0.82,0.34,1.03,0.59c-1.2,1.07-6.021,4.79-8.561,6.62l-0.909,0.65l0.75,0.83  c0.979,1.08,2.81,3.33,3.84,5.059l0.35,0.7l4.4-0.63c0.04,0.07,0.17,0.32,0.229,0.521C27.288,21.347,25.248,22.317,24.298,22.627z"/>
</svg>
