<?xml version="1.0" encoding="utf-8"?>
<!-- Generator: Adobe Illustrator 16.0.0, SVG Export Plug-In . SVG Version: 6.00 Build 0)  -->
<svg xmlns="http://www.w3.org/2000/svg" xmlns:xlink="http://www.w3.org/1999/xlink" version="1.1" id="Layer_1" x="0px" y="0px" width="32px" height="32px" viewBox="0 0 32 32" style="enable-background:new 0 0 32 32;" xml:space="preserve">
<path d="M22.5,18c-3.672,0-5.543,1.579-6.5,3.18V16v-0.032c4.926-0.333,5-5.415,5-5.468C21,4,19.871,4,19.5,4  c-0.416,0-0.984,0.385-1.594,0.948C16.642,2.371,15.98,2,15.5,2c-0.48,0-1.142,0.371-2.406,2.947C12.484,4.385,11.916,4,11.5,4  C11.129,4,10,4,10,10.5c0,0.053,0.074,5.136,5,5.468V16v8.5V25v5h1v-5.027c6.898-0.294,7-6.409,7-6.473V18H22.5z M19.414,5.026  C19.736,5.561,20,7.974,20,10.5c0,0.177-0.047,4.17-4,4.481V8.667C17.386,6.838,18.879,5.253,19.414,5.026z M15.461,2.996  c0.058,0.026,0.564,0.337,1.696,2.705c-0.588,0.632-1.17,1.345-1.657,1.975c-0.487-0.629-1.069-1.342-1.657-1.975  C14.974,3.333,15.479,3.022,15.461,2.996z M11,10.5c0-2.257,0.232-4.894,0.584-5.472C12.131,5.265,13.619,6.845,15,8.667v6.313  C11.065,14.668,11.001,10.676,11,10.5z M16.039,23.987c0.169-1.325,1.075-4.739,5.922-4.975  C21.792,20.338,20.886,23.752,16.039,23.987z"/>
</svg>
