<?xml version="1.0" encoding="utf-8"?><svg xmlns="http://www.w3.org/2000/svg" viewBox="0 0 61.91 8.73"><title>BrandName-Dark</title><g id="Layer_2" data-name="Layer 2"><g id="Layer_1-2" data-name="Layer 1"><path d="M0,0H3.43A11,11,0,0,1,5,.08a2.24,2.24,0,0,1,.9.36,2.3,2.3,0,0,1,.66.72,1.89,1.89,0,0,1,.26,1,2,2,0,0,1-.32,1.11A2,2,0,0,1,5.57,4a2.26,2.26,0,0,1,1.2.77A2.09,2.09,0,0,1,7.2,6.1a2.59,2.59,0,0,1-.28,1.14,2.28,2.28,0,0,1-.74.88A2.47,2.47,0,0,1,5,8.53q-.43,0-2.1.06H0ZM1.73,1.43v2H2.87q1,0,1.26,0a1.17,1.17,0,0,0,.7-.31.9.9,0,0,0,.26-.67,1,1,0,0,0-.22-.65,1,1,0,0,0-.66-.3c-.17,0-.66,0-1.48,0Zm0,3.42V7.14H3.34a8.92,8.92,0,0,0,1.19,0,1.08,1.08,0,0,0,.63-.34A1.07,1.07,0,0,0,5.4,6a1.09,1.09,0,0,0-.19-.66A1,1,0,0,0,4.67,5a6,6,0,0,0-1.54-.12Z"/><path d="M9.7,8.59H8.05V2.37H9.58v.88a2.53,2.53,0,0,1,.71-.82,1.21,1.21,0,0,1,.71-.2,2.07,2.07,0,0,1,1.08.31L11.57,4a1.44,1.44,0,0,0-.77-.27,1,1,0,0,0-.59.19,1.39,1.39,0,0,0-.38.69A10.12,10.12,0,0,0,9.7,6.67Z"/><path d="M13.89,4.27,12.4,4a2.33,2.33,0,0,1,.87-1.34,3.17,3.17,0,0,1,1.83-.43,3.85,3.85,0,0,1,1.64.26,1.62,1.62,0,0,1,.76.66,3.54,3.54,0,0,1,.21,1.47V6.54a6,6,0,0,0,.08,1.21,3.66,3.66,0,0,0,.29.84H16.44c0-.11-.09-.27-.15-.49l-.06-.19a3.13,3.13,0,0,1-.91.62,2.69,2.69,0,0,1-1,.2,2.13,2.13,0,0,1-1.52-.52,1.77,1.77,0,0,1-.55-1.32A1.76,1.76,0,0,1,12.48,6a1.61,1.61,0,0,1,.71-.63,5.32,5.32,0,0,1,1.31-.39,9.18,9.18,0,0,0,1.6-.4V4.37a.84.84,0,0,0-.24-.68,1.35,1.35,0,0,0-.88-.2,1.18,1.18,0,0,0-.69.17A1.27,1.27,0,0,0,13.89,4.27ZM16.1,5.6a8.86,8.86,0,0,1-1,.25,3.18,3.18,0,0,0-.9.29.67.67,0,0,0-.32.58.82.82,0,0,0,.25.6.92.92,0,0,0,.66.25,1.45,1.45,0,0,0,.85-.29A1,1,0,0,0,16,6.73a2.86,2.86,0,0,0,.07-.8Z"/><path d="M24.49,8.59H22.85V5.41a4.84,4.84,0,0,0-.11-1.3.89.89,0,0,0-.34-.46,1,1,0,0,0-.57-.16,1.27,1.27,0,0,0-.77.23,1.21,1.21,0,0,0-.47.62,5.67,5.67,0,0,0-.12,1.43V8.59H18.82V2.37h1.53v.91a2.58,2.58,0,0,1,3-.86,1.72,1.72,0,0,1,.68.5,1.94,1.94,0,0,1,.32.7,5.06,5.06,0,0,1,.09,1.1Z"/><path d="M31.43,8.59H29.9V7.68a2.57,2.57,0,0,1-.9.79,2.35,2.35,0,0,1-2.89-.6,3.52,3.52,0,0,1-.76-2.41,3.51,3.51,0,0,1,.74-2.41A2.43,2.43,0,0,1,28,2.23a2.35,2.35,0,0,1,1.81.86V0h1.65ZM27,5.34a2.8,2.8,0,0,0,.28,1.45,1.24,1.24,0,0,0,1.11.64,1.23,1.23,0,0,0,1-.48,2.3,2.3,0,0,0,.39-1.45A2.42,2.42,0,0,0,29.4,4a1.21,1.21,0,0,0-1-.47,1.23,1.23,0,0,0-1,.46A2.08,2.08,0,0,0,27,5.34Z"/><path d="M32.81,8.59V0H34l4.52,6.74V0h1.09V8.59H38.41L33.9,1.84V8.59Z"/><path d="M44.86,7.82a4.1,4.1,0,0,1-1.13.71,3.41,3.41,0,0,1-1.16.2A2.3,2.3,0,0,1,41,8.23,1.67,1.67,0,0,1,40.44,7a1.72,1.72,0,0,1,.21-.84,1.67,1.67,0,0,1,.55-.6A2.59,2.59,0,0,1,42,5.16,8.38,8.38,0,0,1,42.89,5a9.59,9.59,0,0,0,1.88-.36c0-.14,0-.24,0-.27a1.16,1.16,0,0,0-.3-.91,1.76,1.76,0,0,0-1.2-.36,1.9,1.9,0,0,0-1.1.26,1.54,1.54,0,0,0-.52.92l-1-.14a2.58,2.58,0,0,1,.47-1.07A1.93,1.93,0,0,1,42,2.45a4.09,4.09,0,0,1,1.41-.22,4,4,0,0,1,1.3.18,1.78,1.78,0,0,1,.73.48,1.8,1.8,0,0,1,.33.71,6.84,6.84,0,0,1,.05,1V6a13.75,13.75,0,0,0,.07,1.86,2.31,2.31,0,0,0,.26.75h-1.1A2.17,2.17,0,0,1,44.86,7.82Zm-.09-2.35a8,8,0,0,1-1.72.4,3.82,3.82,0,0,0-.92.21.89.89,0,0,0-.42.34,1,1,0,0,0-.14.5.86.86,0,0,0,.32.7,1.34,1.34,0,0,0,.93.28,2.17,2.17,0,0,0,1.09-.26,1.67,1.67,0,0,0,.69-.73,2.46,2.46,0,0,0,.17-1.06Z"/><path d="M46.88,8.59V2.37h.95v.87a2.15,2.15,0,0,1,1.88-1,2.09,2.09,0,0,1,1.14.28,1.58,1.58,0,0,1,.62.81,2.22,2.22,0,0,1,1.92-1.09,1.92,1.92,0,0,1,1.43.51,2.2,2.2,0,0,1,.49,1.58V8.59h-1V4.67a2.77,2.77,0,0,0-.11-.91.86.86,0,0,0-.37-.45,1.19,1.19,0,0,0-.63-.17,1.48,1.48,0,0,0-1.09.44A1.9,1.9,0,0,0,51.63,5V8.59H50.58v-4a1.82,1.82,0,0,0-.26-1.06,1,1,0,0,0-.84-.35,1.48,1.48,0,0,0-.82.24,1.25,1.25,0,0,0-.55.68,3.67,3.67,0,0,0-.17,1.3V8.59Z"/><path d="M60.78,6.59l1.09.13a2.61,2.61,0,0,1-1,1.48A3.22,3.22,0,0,1,57,7.89a3.31,3.31,0,0,1-.8-2.36A3.44,3.44,0,0,1,57,3.09a2.76,2.76,0,0,1,2.09-.86,2.63,2.63,0,0,1,2,.85,3.35,3.35,0,0,1,.8,2.39c0,.06,0,.15,0,.28H57.26a2.38,2.38,0,0,0,.58,1.57,1.74,1.74,0,0,0,1.3.54,1.62,1.62,0,0,0,1-.3A2,2,0,0,0,60.78,6.59ZM57.32,4.88h3.47a2.14,2.14,0,0,0-.4-1.18,1.62,1.62,0,0,0-1.3-.61,1.68,1.68,0,0,0-1.22.49A1.86,1.86,0,0,0,57.32,4.88Z"/></g></g></svg>