<?xml version="1.0" standalone="no"?>
<!DOCTYPE svg PUBLIC "-//W3C//DTD SVG 1.1//EN" "http://www.w3.org/Graphics/SVG/1.1/DTD/svg11.dtd" >
<svg xmlns="http://www.w3.org/2000/svg">
<metadata></metadata>
<defs>
<font id="geometria_mediummedium" horiz-adv-x="1718" >
<font-face units-per-em="2048" ascent="1589" descent="-459" />
<missing-glyph horiz-adv-x="532" />
<glyph unicode="&#xfb01;" horiz-adv-x="1318" d="M47 811h189v-811h221v811h465v-811h221v1006h-686v92q0 79 40 121.5t115 42.5q76 0 174 -37v186q-104 43 -235 43q-154 0 -234.5 -86.5t-80.5 -230.5v-131h-189v-195zM893 1325q0 60 39.5 100.5t99.5 40.5q58 0 97.5 -40.5t39.5 -100.5q0 -59 -39.5 -99t-97.5 -40 q-60 0 -99.5 40t-39.5 99z" />
<glyph unicode="&#xfb02;" horiz-adv-x="1392" d="M47 811v195h189v131q0 144 80.5 230.5t234.5 86.5q131 0 235 -43v-186q-98 37 -174 37q-75 0 -115 -42.5t-40 -121.5v-92h465v428h221v-1135q0 -123 112 -123q40 0 84 21v-191q-65 -33 -165 -33q-51 0 -93 12.5t-79.5 41t-58.5 82.5t-21 129v573h-465v-811h-221v811h-189 z" />
<glyph horiz-adv-x="2048" />
<glyph horiz-adv-x="2048" />
<glyph unicode="&#xd;" horiz-adv-x="2048" />
<glyph unicode=" "  horiz-adv-x="532" />
<glyph unicode="&#x09;" horiz-adv-x="532" />
<glyph unicode="&#xa0;" horiz-adv-x="532" />
<glyph unicode="!" horiz-adv-x="634" d="M172 127q0 60 42 102.5t101 42.5q60 0 102 -42.5t42 -102.5t-42 -101.5t-102 -41.5q-59 0 -101 41.5t-42 101.5zM172 1434h291l-47 -973h-199z" />
<glyph unicode="&#x22;" horiz-adv-x="770" d="M92 868v566h193v-566h-193zM487 868v566h193v-566h-193z" />
<glyph unicode="#" horiz-adv-x="1536" d="M72 367l26 170h289l59 358h-290l26 172h289l59 367h177l-60 -367h354l58 367h174l-57 -367h290l-28 -172h-289l-57 -358h290l-26 -170h-291l-59 -367h-175l60 367h-356l-56 -367h-176l59 367h-290zM563 537h355l57 358h-357z" />
<glyph unicode="$" horiz-adv-x="1290" d="M94 127v242q84 -76 231 -131.5t296 -55.5q140 0 235.5 57.5t95.5 157.5q0 104 -106 162q-59 33 -229 82q-18 5 -27 8q-68 20 -107.5 32.5t-97 34.5t-91 42.5t-72.5 52.5t-60 67.5t-35 84t-14 106.5q0 156 108.5 258t302.5 127v207h221v-207q190 -23 347 -113v-223 q-94 58 -215 95.5t-240 37.5q-148 0 -220.5 -52t-72.5 -132q0 -44 28.5 -78.5t77.5 -58t112 -44.5t132.5 -42t139 -45t132.5 -59.5t112 -79.5t77.5 -110.5t28.5 -148.5q0 -172 -122 -282t-317 -137v-209h-221v207q-127 12 -239 50.5t-191 96.5z" />
<glyph unicode="%" horiz-adv-x="1677" d="M74 1112q0 147 99.5 247.5t250.5 100.5q154 0 254 -100t100 -248t-100 -247t-254 -99q-151 0 -250.5 99.5t-99.5 246.5zM236 1112q0 -84 53 -140.5t135 -56.5q85 0 138.5 56.5t53.5 140.5q0 86 -53.5 141.5t-138.5 55.5q-83 0 -135.5 -56t-52.5 -141zM330 0l848 1434h170 l-846 -1434h-172zM899 322q0 146 99.5 246t250.5 100q154 0 254.5 -100t100.5 -246q0 -148 -100.5 -248.5t-254.5 -100.5q-151 0 -250.5 100.5t-99.5 248.5zM1061 322q0 -85 52.5 -141t135.5 -56q85 0 139 55.5t54 141.5q0 84 -54 140t-139 56q-82 0 -135 -56t-53 -140z" />
<glyph unicode="&#x26;" horiz-adv-x="1509" d="M86 440q0 76 25 146t65.5 120t83 84.5t84.5 53.5q-82 119 -82 256q0 157 115 258.5t293 101.5q206 0 366 -106v-221q-151 133 -327 133q-104 0 -165 -49t-61 -136q0 -39 16 -79t50 -82.5t57 -67t66 -66.5l372 -364q91 141 97 352h213q0 -290 -154 -504l279 -270h-287 l-131 125q-189 -152 -438 -152q-144 0 -264 52t-196.5 160t-76.5 255zM305 444q0 -87 46.5 -151.5t119 -94.5t158.5 -30q165 0 282 100l-436 426q-66 -25 -118 -92t-52 -158z" />
<glyph unicode="'" horiz-adv-x="374" d="M92 868v566h193v-566h-193z" />
<glyph unicode="(" horiz-adv-x="768" d="M168 512q0 281 80.5 520t220.5 414h227q-323 -414 -323 -934q0 -525 323 -934h-227q-140 175 -220.5 413.5t-80.5 520.5z" />
<glyph unicode=")" horiz-adv-x="768" d="M72 -422q323 409 323 934q0 520 -323 934h227q140 -175 220.5 -414t80.5 -520q0 -282 -80.5 -520.5t-220.5 -413.5h-227z" />
<glyph unicode="*" horiz-adv-x="866" d="M68 934l221 125l-221 123l77 131l217 -131l-4 252h152l-4 -252l217 131l76 -131l-224 -123l224 -125l-76 -131l-217 129l4 -252h-152l4 252l-217 -129z" />
<glyph unicode="+" horiz-adv-x="1292" d="M139 573v199h406v408h200v-408h408v-199h-408v-407h-200v407h-406z" />
<glyph unicode="," horiz-adv-x="520" d="M16 -311l170 573h254l-250 -573h-174z" />
<glyph unicode="-" horiz-adv-x="1005" d="M201 465v199h604v-199h-604z" />
<glyph unicode="." horiz-adv-x="512" d="M113 129q0 59 42 101t103 42q58 0 100.5 -42t42.5 -101q0 -61 -42 -103t-101 -42q-62 0 -103.5 42t-41.5 103z" />
<glyph unicode="/" horiz-adv-x="1071" d="M-16 -287l862 1909h225l-862 -1909h-225z" />
<glyph unicode="0" horiz-adv-x="1445" d="M121 717q0 149 42 283.5t118 237t190.5 162.5t251.5 60q138 0 253 -60t191 -162.5t118 -237t42 -283.5q0 -150 -42 -284.5t-118 -237t-191 -162.5t-253 -60q-182 0 -321 103.5t-210 271.5t-71 369zM346 717q0 -146 46 -267t133 -193.5t198 -72.5q112 0 199.5 72.5 t133.5 193.5t46 267t-46 266.5t-133.5 193t-199.5 72.5q-111 0 -198 -72.5t-133 -193t-46 -266.5z" />
<glyph unicode="1" horiz-adv-x="782" d="M53 1024v219l338 191h197v-1434h-221v1192z" />
<glyph unicode="2" horiz-adv-x="1181" d="M82 0v164l450 422q150 139 211.5 230t61.5 196q0 107 -79 174t-206 67q-120 0 -216 -47t-185 -131v236q177 149 424 149q132 0 242 -50.5t177.5 -148t67.5 -223.5q0 -101 -34.5 -187.5t-98 -165.5t-180.5 -189l-309 -295h671v-201h-997z" />
<glyph unicode="3" horiz-adv-x="1175" d="M82 82v219q176 -127 416 -127q143 0 244.5 79t101.5 212q0 123 -90 200.5t-242 77.5q-96 0 -182 -32v153l385 373h-580v197h879v-170l-367 -353q82 -9 157 -42.5t135 -88.5t96 -137t36 -178q0 -148 -75.5 -261t-202.5 -172t-283 -59q-255 0 -428 109z" />
<glyph unicode="4" horiz-adv-x="1304" d="M59 375v172l744 887h221v-867h223v-192h-223v-375h-221v375h-744zM315 567h488v578z" />
<glyph unicode="5" horiz-adv-x="1212" d="M111 72v211q178 -109 393 -109q156 0 261 79.5t105 209.5q0 124 -98 204.5t-262 80.5t-344 -62l94 748h737v-197h-573l-41 -330q84 23 180 23q233 0 384 -129.5t151 -337.5q0 -149 -79 -262t-211 -170.5t-294 -57.5q-229 0 -403 99z" />
<glyph unicode="6" horiz-adv-x="1308" d="M123 645q0 132 26 252.5t79 223t128.5 178t180 118.5t227.5 43q179 0 315 -90v-205q-133 90 -291 90q-107 0 -190.5 -41.5t-134 -112t-78 -156t-31.5 -181.5q58 75 152.5 118.5t218.5 43.5q128 0 232 -55t166.5 -160t62.5 -242q0 -218 -144.5 -357t-359.5 -139 q-263 0 -411 178t-148 494zM348 516q12 -159 96 -251.5t224 -92.5q127 0 211 83t84 210q0 124 -84.5 201t-212.5 77q-106 0 -197.5 -65t-120.5 -162z" />
<glyph unicode="7" horiz-adv-x="1148" d="M82 1231v203h979v-174l-635 -1260h-242l621 1231h-723z" />
<glyph unicode="8" horiz-adv-x="1316" d="M98 399q0 129 79 224.5t208 138.5q-100 42 -158.5 123.5t-58.5 187.5q0 172 139 279.5t352 107.5q212 0 351 -108t139 -279q0 -105 -59 -186.5t-156 -124.5q129 -43 207 -138t78 -225q0 -131 -77.5 -229.5t-203.5 -147.5t-279 -49q-114 0 -215.5 29t-178.5 82.5 t-122 134.5t-45 180zM330 414q0 -106 95 -178t234 -72t233.5 72t94.5 178q0 109 -93.5 178.5t-234.5 69.5t-235 -69.5t-94 -178.5zM383 1055q0 -96 79 -157.5t197 -61.5q117 0 196 61.5t79 157.5t-79 157.5t-196 61.5q-118 0 -197 -61.5t-79 -157.5z" />
<glyph unicode="9" horiz-adv-x="1308" d="M123 965q0 218 144.5 356.5t359.5 138.5q263 0 411 -178t148 -494q0 -132 -26 -252.5t-79 -223t-128.5 -178t-180 -118.5t-227.5 -43q-180 0 -316 90v205q133 -90 291 -90q106 0 190 41.5t134.5 112t78 156.5t31.5 182q-125 -162 -370 -162q-128 0 -232 55t-166.5 160 t-62.5 242zM346 969q0 -124 84.5 -201.5t212.5 -77.5q106 0 197.5 65.5t120.5 162.5q-12 159 -96 251.5t-224 92.5q-127 0 -211 -83t-84 -210z" />
<glyph unicode=":" horiz-adv-x="512" d="M113 129q0 59 42 101t103 42q58 0 100.5 -42t42.5 -101q0 -61 -42 -103t-101 -42q-62 0 -103.5 42t-41.5 103zM113 846q0 59 42 101t103 42q58 0 100.5 -42.5t42.5 -100.5q0 -61 -42 -103.5t-101 -42.5q-61 0 -103 42t-42 104z" />
<glyph unicode=";" horiz-adv-x="534" d="M16 -311l170 573h254l-250 -573h-174zM166 846q0 59 42 101t103 42q59 0 101.5 -42.5t42.5 -100.5q0 -61 -42.5 -103.5t-101.5 -42.5q-61 0 -103 42t-42 104z" />
<glyph unicode="&#x3c;" horiz-adv-x="1292" d="M139 565v207l1014 424v-217l-784 -309l784 -310v-215z" />
<glyph unicode="=" horiz-adv-x="1292" d="M139 340v199h1014v-199h-1014zM139 807v199h1014v-199h-1014z" />
<glyph unicode="&#x3e;" horiz-adv-x="1292" d="M139 145v215l783 310l-783 309v217l1014 -424v-207z" />
<glyph unicode="?" horiz-adv-x="991" d="M57 1139v194q76 56 180.5 88.5t215.5 32.5q124 0 227.5 -44.5t169 -136.5t65.5 -214q0 -77 -32 -146t-87 -119t-118.5 -86.5t-134.5 -58.5v-188h-213v297q91 18 170 56t133.5 99t54.5 131q0 99 -74.5 155t-197.5 56q-180 0 -359 -116zM299 129q0 59 41 101t102 42 q60 0 102 -42t42 -101q0 -61 -42 -103t-102 -42q-61 0 -102 41.5t-41 103.5z" />
<glyph unicode="@" horiz-adv-x="1947" d="M86 563q0 188 70.5 355t189.5 285.5t282.5 187.5t344.5 69q186 0 351.5 -66.5t283 -179.5t186 -269t68.5 -329q0 -223 -101.5 -360t-265.5 -137q-101 0 -172 43t-106 110q-42 -61 -125 -110t-193 -49q-119 0 -213 60.5t-144 162t-50 225.5q0 190 114 319.5t291 129.5 t293 -140v113h207v-571q0 -104 39.5 -156.5t109.5 -52.5q101 0 173.5 113.5t72.5 301.5q0 154 -58 295.5t-162 248.5t-260 171t-339 64q-175 0 -328 -66.5t-260 -179t-168 -265.5t-61 -323q0 -171 61 -324.5t167.5 -265.5t259.5 -177.5t329 -65.5q225 0 438 118v-71 q-198 -111 -438 -111q-181 0 -344.5 68t-283 185.5t-189.5 285.5t-70 358zM709 561q0 -111 70.5 -187.5t178.5 -76.5q72 0 134.5 37.5t97.5 95.5v262q-35 58 -97.5 95.5t-134.5 37.5q-108 0 -178.5 -76.5t-70.5 -187.5z" />
<glyph unicode="A" horiz-adv-x="1560" d="M45 0l627 1442h217l627 -1442h-242l-156 356h-680l-153 -356h-240zM516 555h524l-262 602z" />
<glyph unicode="B" horiz-adv-x="1476" d="M178 0v1434h651q192 0 307 -93.5t115 -259.5q0 -110 -54 -186.5t-136 -108.5q132 -25 218.5 -125.5t86.5 -257.5q0 -182 -130 -292.5t-353 -110.5h-705zM403 207h439q132 0 206 61t74 168t-73.5 164t-206.5 57h-439v-450zM403 856h388q113 0 175 48t62 138t-62 137.5 t-175 47.5h-388v-371z" />
<glyph unicode="C" horiz-adv-x="1400" d="M127 717q0 214 98.5 384t271 264.5t386.5 94.5q222 0 389 -96v-227q-173 112 -387 112q-148 0 -268.5 -68t-189.5 -190t-69 -274q0 -153 70.5 -275t192.5 -190t272 -68q243 0 410 131v-227q-179 -115 -420 -115q-159 0 -298.5 55.5t-240.5 152.5t-159 236t-58 300z" />
<glyph unicode="D" horiz-adv-x="1593" d="M178 0v1434h506q229 0 407 -90.5t276.5 -253.5t98.5 -373t-98.5 -373t-276.5 -253.5t-407 -90.5h-506zM403 207h261q267 0 419 137t152 373t-152 373t-419 137h-261v-1020z" />
<glyph unicode="E" horiz-adv-x="1312" d="M178 0v1434h1020v-207h-795v-359h648v-206h-648v-455h822v-207h-1047z" />
<glyph unicode="F" horiz-adv-x="1280" d="M178 0v1434h1018v-207h-793v-375h629v-207h-629v-645h-225z" />
<glyph unicode="G" horiz-adv-x="1585" d="M127 717q0 213 98.5 383.5t270.5 265t385 94.5q259 0 442 -123v-223q-197 135 -428 135q-233 0 -385 -149t-152 -385q0 -119 40.5 -219.5t110 -168t163.5 -105.5t200 -38q220 0 347 121v522h225v-614q-89 -104 -240 -172t-332 -68q-207 0 -377 94t-269 265t-99 385z" />
<glyph unicode="H" horiz-adv-x="1554" d="M178 0v1434h225v-566h748v566h225v-1434h-225v662h-748v-662h-225z" />
<glyph unicode="I" horiz-adv-x="604" d="M188 0v1434h226v-1434h-226z" />
<glyph unicode="J" horiz-adv-x="1042" d="M66 61v224q58 -46 136 -73.5t156 -27.5q149 0 223 74t74 234v942h226v-979q0 -129 -36.5 -224t-103 -150.5t-151 -81.5t-189.5 -26q-205 0 -335 88z" />
<glyph unicode="K" horiz-adv-x="1396" d="M178 0v1434h225v-586l588 586h289l-664 -656l770 -778h-307l-676 688v-688h-225z" />
<glyph unicode="L" horiz-adv-x="1228" d="M178 0v1434h228v-1227h761v-207h-989z" />
<glyph unicode="M" horiz-adv-x="1736" d="M178 0v1434h230l464 -646l461 646h226v-1434h-226v1090l-399 -541h-131l-400 541v-1090h-225z" />
<glyph unicode="N" horiz-adv-x="1583" d="M178 0v1434h197l809 -1039v1039h221v-1434h-191l-815 1042v-1042h-221z" />
<glyph unicode="O" d="M127 717q0 207 94 377t262 268t375 98t375.5 -98t263 -268t94.5 -377t-94.5 -377t-263 -268.5t-375.5 -98.5t-375 98.5t-262 268.5t-94 377zM358 717q0 -228 143.5 -380.5t356.5 -152.5q214 0 358 152.5t144 380.5t-144 380t-358 152q-213 0 -356.5 -152t-143.5 -380z " />
<glyph unicode="P" horiz-adv-x="1355" d="M178 0v1434h617q223 0 351 -115.5t128 -300.5q0 -189 -128 -307.5t-351 -118.5h-392v-592h-225zM403 799h373q127 0 199 56.5t72 158.5q0 103 -71.5 158t-199.5 55h-373v-428z" />
<glyph unicode="Q" d="M127 717q0 207 94 377t262 268t375 98t375.5 -98t263 -268t94.5 -377q0 -237 -124 -423t-330 -269q114 -117 229 -117q99 0 170 45v-207q-89 -45 -205 -45q-119 0 -222.5 67.5t-227.5 204.5h-23q-207 0 -375 98.5t-262 268.5t-94 377zM358 717q0 -228 143.5 -380.5 t356.5 -152.5q214 0 358 152.5t144 380.5t-144 380t-358 152q-213 0 -356.5 -152t-143.5 -380z" />
<glyph unicode="R" horiz-adv-x="1501" d="M178 0v1434h653q220 0 347 -113t127 -295q0 -147 -82 -253.5t-230 -141.5l451 -631h-273l-432 606h-336v-606h-225zM403 805h414q122 0 191 55.5t69 157.5q0 99 -69 154t-191 55h-414v-422z" />
<glyph unicode="S" horiz-adv-x="1290" d="M92 127v244q86 -76 232 -131.5t294 -55.5q141 0 236.5 56.5t95.5 156.5q0 104 -106 162q-59 33 -229 82q-18 5 -27 8q-68 20 -107.5 32.5t-97 34.5t-91 42.5t-72.5 52.5t-60 67.5t-35 84t-14 106.5q0 177 139 284t381 107q258 0 459 -119v-225q-94 58 -215 95.5 t-240 37.5q-148 0 -220.5 -51t-72.5 -131q0 -29 9 -52.5t31.5 -43t43 -33t61.5 -28t67.5 -23t80 -23.5t82.5 -24q82 -25 138.5 -47t123.5 -60t107.5 -81t68 -107.5t27.5 -143.5q0 -132 -75.5 -230.5t-199.5 -148t-276 -49.5q-159 0 -300 41.5t-239 112.5z" />
<glyph unicode="T" horiz-adv-x="1308" d="M68 1227v207h1173v-207h-475v-1227h-225v1227h-473z" />
<glyph unicode="U" horiz-adv-x="1519" d="M160 606v828h225v-836q0 -200 102.5 -307t272.5 -107t273.5 107t103.5 307v836h225v-828q0 -152 -46 -273.5t-127.5 -199.5t-190.5 -119t-238 -41t-238 41t-190 119t-126.5 199t-45.5 274z" />
<glyph unicode="V" horiz-adv-x="1550" d="M53 1434h250l475 -1131l475 1131h244l-614 -1442h-213z" />
<glyph unicode="W" horiz-adv-x="2181" d="M61 1434h252l342 -1078l349 1080h178l348 -1080l342 1078h248l-490 -1442h-198l-340 1067l-342 -1067h-201z" />
<glyph unicode="X" horiz-adv-x="1468" d="M35 0l567 776l-477 658h266l346 -476l346 476h263l-480 -654l570 -780h-269l-434 596l-436 -596h-262z" />
<glyph unicode="Y" horiz-adv-x="1400" d="M33 1434h262l410 -580l409 580h254l-555 -779v-655h-225v649z" />
<glyph unicode="Z" horiz-adv-x="1314" d="M84 0v160l807 1067h-766v207h1073v-158l-805 -1069h838v-207h-1147z" />
<glyph unicode="[" horiz-adv-x="837" d="M178 -422v1868h582v-174h-381v-1520h381v-174h-582z" />
<glyph unicode="\" horiz-adv-x="1069" d="M2 1622h221l862 -1909h-221z" />
<glyph unicode="]" horiz-adv-x="837" d="M78 -248h381v1520h-381v174h581v-1868h-581v174z" />
<glyph unicode="^" horiz-adv-x="1095" d="M90 700l352 791h211l353 -791h-211l-246 596l-248 -596h-211z" />
<glyph unicode="_" horiz-adv-x="1298" d="M12 -133h1274v-152h-1274v152z" />
<glyph unicode="`" horiz-adv-x="1069" d="M303 1464h275l194 -286h-201z" />
<glyph unicode="a" horiz-adv-x="1222" d="M74 311q0 159 116.5 246.5t286.5 87.5q182 0 322 -78v56q0 219 -295 219q-83 0 -170 -26t-148 -64v194q151 86 367 86q209 0 337 -100t128 -285v-375q0 -46 23.5 -73t60.5 -27q34 0 59 14v-168q-43 -32 -129 -32q-77 0 -133.5 35.5t-77.5 107.5q-60 -69 -153.5 -112.5 t-216.5 -43.5q-164 0 -270.5 90.5t-106.5 247.5zM295 324q0 -79 60.5 -119.5t156.5 -40.5q86 0 163.5 35t123.5 86v123q-127 71 -269 71q-109 0 -172 -41t-63 -114z" />
<glyph unicode="b" horiz-adv-x="1310" d="M158 0v1434h221v-566q55 72 145.5 118t212.5 46q141 0 253.5 -71t173.5 -191.5t61 -265.5t-61 -266t-173.5 -193t-253.5 -72q-122 0 -212.5 46t-145.5 118v-137h-221zM379 348q40 -79 120 -129.5t179 -50.5q139 0 231 97.5t92 238.5q0 140 -92 237t-231 97 q-98 0 -178 -51t-121 -128v-311z" />
<glyph unicode="c" horiz-adv-x="1064" d="M86 506q0 153 75 274.5t198.5 186.5t271.5 65q171 0 303 -69v-191q-135 66 -270 66q-150 0 -253.5 -94t-103.5 -240t103.5 -241t253.5 -95q158 0 286 76v-189q-143 -82 -321 -82q-109 0 -208 39t-173.5 107.5t-118 169t-43.5 217.5z" />
<glyph unicode="d" horiz-adv-x="1310" d="M86 504q0 145 60.5 265t173 191.5t253.5 71.5q122 0 213 -46t146 -118v566h221v-1434h-221v137q-55 -72 -146 -118t-213 -46q-141 0 -253.5 72t-173 193t-60.5 266zM309 504q0 -141 92 -238.5t232 -97.5q99 0 179 50.5t120 129.5v311q-41 77 -121 128t-178 51 q-139 0 -231.5 -97t-92.5 -237z" />
<glyph unicode="e" horiz-adv-x="1171" d="M86 504q0 225 143.5 376.5t372.5 151.5q94 0 173 -30.5t134.5 -82t94 -120.5t57 -145.5t18.5 -157.5v-58h-770q21 -127 123.5 -198.5t255.5 -71.5q175 0 324 90v-186q-62 -44 -160.5 -71.5t-210.5 -27.5q-153 0 -278.5 64.5t-201 187t-75.5 279.5zM311 606h545 q-2 92 -71 166t-193 74q-121 0 -196 -70.5t-85 -169.5z" />
<glyph unicode="f" horiz-adv-x="837" d="M47 811v195h189v131q0 144 80.5 230.5t234.5 86.5q131 0 235 -43v-186q-98 37 -174 37q-75 0 -115 -42.5t-40 -121.5v-92h329v-195h-329v-811h-221v811h-189z" />
<glyph unicode="g" horiz-adv-x="1304" d="M86 520q0 140 60.5 256.5t173 186t253.5 69.5q122 0 213 -44t146 -114v132h221v-916q0 -127 -47 -226.5t-127.5 -160.5t-180 -92t-210.5 -31q-109 0 -216 25.5t-177 64.5v203q164 -98 368 -98q59 0 111 9.5t100 33t82.5 58.5t55 88.5t20.5 121.5v76 q-55 -69 -146.5 -113.5t-212.5 -44.5q-141 0 -253.5 69.5t-173 187t-60.5 259.5zM309 518q0 -135 92 -227t232 -92q99 0 179.5 48t119.5 124v293q-39 77 -119.5 125.5t-179.5 48.5q-140 0 -232 -92.5t-92 -227.5z" />
<glyph unicode="h" horiz-adv-x="1257" d="M158 0v1434h221v-562q148 160 369 160q179 0 275.5 -111.5t96.5 -306.5v-614h-221v565q0 77 -22 131.5t-59 80.5t-74 37t-80 11q-85 0 -163.5 -47t-121.5 -116v-662h-221z" />
<glyph unicode="i" horiz-adv-x="573" d="M147 1325q0 60 40 100.5t100 40.5q58 0 97.5 -40.5t39.5 -100.5q0 -59 -39.5 -99t-97.5 -40q-60 0 -100 40t-40 99zM176 0v1006h221v-1006h-221z" />
<glyph unicode="j" horiz-adv-x="573" d="M-137 -186v-193q32 -19 89.5 -30t110.5 -11q152 0 243 88.5t91 259.5v1078h-221v-1053q0 -88 -43 -133t-123 -45q-81 0 -147 39zM145 1325q0 60 40.5 100.5t99.5 40.5t99 -40.5t40 -100.5q0 -59 -40 -99t-99 -40t-99.5 40.5t-40.5 98.5z" />
<glyph unicode="k" horiz-adv-x="1169" d="M158 0v1434h221v-809l397 381h283l-477 -451l548 -555h-303l-448 455v-455h-221z" />
<glyph unicode="l" horiz-adv-x="626" d="M158 238v1196h221v-1135q0 -62 29 -92.5t81 -30.5q44 0 84 21v-191q-65 -33 -163 -33q-51 0 -93 12.5t-79.5 41t-58.5 82.5t-21 129z" />
<glyph unicode="m" horiz-adv-x="1888" d="M158 0v1006h221v-132q49 70 135 114t197 44q119 0 202 -50t115 -130q55 79 151 129.5t216 50.5q165 0 260.5 -103t95.5 -300v-629h-221v578q0 247 -205 247q-81 0 -153 -48.5t-105 -119.5v-657h-221v578q0 76 -20 128.5t-54 76.5t-65.5 33t-67.5 9q-78 0 -151 -46 t-109 -115v-664h-221z" />
<glyph unicode="n" horiz-adv-x="1257" d="M158 0v1006h221v-134q148 160 369 160q179 0 275.5 -111.5t96.5 -306.5v-614h-221v565q0 77 -21.5 131.5t-58 80.5t-74 37t-81.5 11q-85 0 -163.5 -47t-121.5 -116v-662h-221z" />
<glyph unicode="o" horiz-adv-x="1275" d="M86 504q0 108 40.5 204.5t112.5 168t176 113.5t224 42t223.5 -42t175 -113.5t112 -168t40.5 -204.5q0 -145 -69 -266t-196 -193t-286 -72q-120 0 -224 42t-176 114t-112.5 169.5t-40.5 205.5zM307 504q0 -143 95 -239.5t237 -96.5t236 96.5t94 239.5q0 141 -94.5 237.5 t-235.5 96.5q-142 0 -237 -97t-95 -237z" />
<glyph unicode="p" horiz-adv-x="1310" d="M158 -410v1416h221v-138q55 72 145.5 118t212.5 46q141 0 253.5 -72t173.5 -192.5t61 -265.5t-61 -265.5t-173.5 -192t-253.5 -71.5q-122 0 -212.5 46t-145.5 118v-547h-221zM379 346q41 -76 121 -127t178 -51q139 0 231 97t92 237q0 141 -92 238.5t-231 97.5 q-99 0 -179 -51t-120 -130v-311z" />
<glyph unicode="q" horiz-adv-x="1310" d="M86 502q0 145 60.5 265.5t173 192.5t253.5 72q122 0 213 -46t146 -118v138h221v-1416h-221v547q-55 -72 -146 -118t-213 -46q-141 0 -253.5 71.5t-173 192t-60.5 265.5zM309 502q0 -140 92.5 -237t231.5 -97q98 0 178 51t121 127v311q-40 79 -120 130t-179 51 q-140 0 -232 -97.5t-92 -238.5z" />
<glyph unicode="r" horiz-adv-x="813" d="M158 0v1006h221v-175q52 89 153 145t218 56q12 0 20 -2v-221q-28 4 -61 4q-118 0 -206.5 -60t-123.5 -137v-616h-221z" />
<glyph unicode="s" horiz-adv-x="1048" d="M96 76v209q69 -47 177 -84t233 -37q104 0 162.5 32t58.5 87q0 19 -6.5 34t-22.5 26.5t-32 19.5t-45 16.5t-51.5 14t-61 14.5t-64.5 16q-173 43 -255.5 112t-82.5 201q0 136 112.5 215.5t313.5 79.5q102 0 204 -24t167 -66v-203q-182 103 -362 103q-103 0 -155 -30.5 t-52 -80.5q0 -18 7 -33t24 -26.5t33 -20t45.5 -16.5t50 -13t58 -13t58.5 -13q163 -37 253.5 -111.5t90.5 -205.5q0 -138 -121 -222t-317 -84q-126 0 -240 29t-180 74z" />
<glyph unicode="t" horiz-adv-x="892" d="M47 811v195h215v292h221v-292h318v-195h-318v-473q0 -86 39 -124t119 -38t152 37v-190q-32 -22 -98 -36t-126 -14q-141 0 -224 76.5t-83 224.5v537h-215z" />
<glyph unicode="u" horiz-adv-x="1259" d="M139 391v615h221v-566q0 -77 21.5 -131.5t58.5 -80.5t74.5 -37t81.5 -11q84 0 163 47.5t122 116.5v662h221v-1006h-221v133q-148 -160 -369 -160q-179 0 -276 111.5t-97 306.5z" />
<glyph unicode="v" horiz-adv-x="1185" d="M41 1006h244l313 -727l309 727h236l-451 -1014h-200z" />
<glyph unicode="w" horiz-adv-x="1685" d="M57 1006h226l235 -684l234 688h182l237 -688l234 684h223l-352 -1014h-193l-243 694l-242 -694h-190z" />
<glyph unicode="x" horiz-adv-x="1163" d="M51 0l406 526l-365 480h256l238 -312l239 312h252l-364 -476l405 -530h-256l-280 367l-281 -367h-250z" />
<glyph unicode="y" horiz-adv-x="1169" d="M43 1006h246l303 -709l293 709h239l-481 -1115q-134 -311 -383 -311q-126 0 -182 33v194q65 -32 145 -32q85 0 144 63t116 199z" />
<glyph unicode="z" horiz-adv-x="1056" d="M72 0v147l559 664h-522v195h841v-152l-559 -659h592v-195h-911z" />
<glyph unicode="{" horiz-adv-x="796" d="M106 426v172q42 4 72 20t46.5 37.5t25.5 56.5t11.5 66.5t2.5 77.5v277q0 146 84.5 229.5t229.5 83.5h141v-174h-96q-74 0 -115 -44t-41 -116v-317q0 -113 -34.5 -183.5t-119.5 -99.5q85 -29 119.5 -99.5t34.5 -183.5v-317q0 -72 41 -116t115 -44h96v-174h-141 q-145 0 -229.5 83.5t-84.5 229.5v277q0 46 -2.5 77.5t-11.5 66.5t-25.5 56.5t-46.5 37.5t-72 20z" />
<glyph unicode="|" horiz-adv-x="684" d="M242 -227v1783h200v-1783h-200z" />
<glyph unicode="}" horiz-adv-x="796" d="M78 -248h96q74 0 115 44t41 116v317q0 114 34 184t119 99q-85 29 -119 99t-34 184v317q0 72 -41 116t-115 44h-96v174h141q145 0 229 -83.5t84 -229.5v-277q0 -46 2.5 -77.5t11.5 -66.5t25.5 -56.5t46.5 -37.5t72 -20v-172q-42 -4 -72 -20t-46.5 -37.5t-25.5 -56.5 t-11.5 -66.5t-2.5 -77.5v-277q0 -146 -84 -229.5t-229 -83.5h-141v174z" />
<glyph unicode="~" horiz-adv-x="1245" d="M139 391v201q28 38 92 62t138 24q63 0 132 -17t121 -37.5t121 -37.5t131 -17q146 0 232 95v-203q-29 -38 -93 -61t-139 -23q-78 0 -165 27t-174.5 54t-165.5 27q-145 0 -230 -94z" />
<glyph unicode="&#xa1;" horiz-adv-x="634" d="M172 -410l47 963h199l45 -963h-291zM176 879q0 60 41.5 101.5t101.5 41.5q59 0 101.5 -41.5t42.5 -101.5t-42.5 -103t-101.5 -43q-60 0 -101.5 43t-41.5 103z" />
<glyph unicode="&#xa2;" horiz-adv-x="1064" d="M86 506q0 204 125 344.5t317 173.5v221h187v-217q111 -11 219 -65v-191q-135 66 -270 66q-150 0 -253.5 -94t-103.5 -240t103.5 -241t253.5 -95q158 0 286 76v-189q-110 -64 -235 -78v-217h-187v224q-192 32 -317 173.5t-125 348.5z" />
<glyph unicode="&#xa3;" horiz-adv-x="1198" d="M104 0v203h31q69 0 97 31t28 98v260h-156v182h156v211q0 224 133 349.5t363 125.5q189 0 329 -80v-213q-130 82 -294 82q-148 0 -227 -75.5t-79 -221.5v-178h510v-182h-510v-266q0 -80 -55 -123h680v-203h-1006z" />
<glyph unicode="&#xa5;" horiz-adv-x="1335" d="M33 1434h262l375 -580l379 580h251l-446 -668h342v-160h-416v-170h416v-160h-416v-276h-225v276h-416v160h416v170h-416v160h342z" />
<glyph unicode="&#xa7;" horiz-adv-x="1323" d="M100 600q0 98 60.5 170t161.5 111q-71 47 -107.5 104.5t-36.5 136.5q0 154 134 246t362 92q245 0 452 -110v-222q-236 125 -460 125q-124 0 -191 -38.5t-67 -100.5q0 -18 5.5 -33.5t18 -29t25.5 -24t37 -21.5t43 -18.5t52 -18t56.5 -17t64 -18t66.5 -19.5 q82 -24 142.5 -47.5t121 -57.5t98.5 -72.5t61.5 -92t23.5 -117.5q0 -97 -61 -169t-161 -111q70 -47 107 -105t37 -137q0 -154 -134 -246t-362 -92q-247 0 -452 111v221q236 -125 460 -125q125 0 191.5 38t66.5 103q0 28 -15.5 50.5t-40 39t-66.5 33t-82 28.5t-99 28 q-43 12 -65 18q-82 24 -142.5 47.5t-121 57.5t-98.5 72.5t-61.5 92t-23.5 117.5zM313 623q0 -34 16.5 -63t48 -51.5t69 -41t89 -36t97 -31t104.5 -32t101 -34.5q80 19 126 63.5t46 108.5q0 47 -30.5 84t-90.5 65t-118 47.5t-145.5 46t-140.5 46.5q-80 -18 -126 -62t-46 -110 z" />
<glyph unicode="&#xa8;" horiz-adv-x="1069" d="M209 1327q0 51 36.5 87t88.5 36q51 0 86 -36t35 -87t-35 -87t-86 -36q-52 0 -88.5 36t-36.5 87zM633 1327q0 51 37 87t88 36t86 -36t35 -87t-35 -87t-86 -36t-88 36t-37 87z" />
<glyph unicode="&#xa9;" horiz-adv-x="1736" d="M127 717q0 200 98.5 371t269.5 271.5t373 100.5q203 0 374 -100t269.5 -271t98.5 -372q0 -150 -58.5 -287t-157.5 -237.5t-237.5 -160t-290.5 -59.5q-203 0 -373.5 100.5t-268 271.5t-97.5 372zM195 717q0 -185 89 -342t243.5 -248.5t338.5 -91.5q139 0 264 54.5 t214.5 146.5t142.5 217.5t53 263.5q0 185 -88.5 341.5t-243.5 248.5t-340 92q-184 0 -339 -92t-244.5 -249t-89.5 -341zM496 717q0 170 118.5 285.5t296.5 115.5q118 0 207 -47v-149q-91 59 -207 59q-112 0 -187 -74t-75 -190t77 -190t194 -74q128 0 217 69v-149 q-94 -60 -226 -60q-176 0 -295.5 117t-119.5 287z" />
<glyph unicode="&#xaa;" horiz-adv-x="985" d="M90 901q0 119 89 184.5t218 65.5q139 0 248 -64v50q0 93 -62.5 134.5t-164.5 41.5q-63 0 -128.5 -21.5t-111.5 -50.5v137q116 68 275 68q156 0 252 -74.5t96 -212.5v-293q0 -36 17.5 -58t45.5 -22q24 0 43 13v-121q-33 -23 -90 -23q-59 0 -100.5 27.5t-54.5 83.5 q-108 -119 -285 -119q-124 0 -205.5 67.5t-81.5 186.5zM250 909q0 -64 47.5 -96.5t122.5 -32.5q68 0 129 29t96 70v94q-93 59 -211 59q-87 0 -135.5 -33t-48.5 -90z" />
<glyph unicode="&#xab;" horiz-adv-x="1153" d="M72 446v113l295 371h225l-334 -426l334 -426h-225zM561 446v113l295 371h225l-331 -426l331 -426h-225z" />
<glyph unicode="&#xac;" horiz-adv-x="1191" d="M139 637v199h914v-539h-199v340h-715z" />
<glyph unicode="&#xad;" horiz-adv-x="1005" d="M201 465v199h604v-199h-604z" />
<glyph unicode="&#xae;" horiz-adv-x="1736" d="M127 717q0 200 98.5 371t269.5 271.5t373 100.5q203 0 374 -100t269.5 -271t98.5 -372q0 -150 -58.5 -287t-157.5 -237.5t-237.5 -160t-290.5 -59.5q-203 0 -373.5 100.5t-268 271.5t-97.5 372zM195 717q0 -185 89 -342t243.5 -248.5t338.5 -91.5q139 0 264 54.5 t214.5 146.5t142.5 217.5t53 263.5q0 185 -88.5 341.5t-243.5 248.5t-340 92q-184 0 -339 -92t-244.5 -249t-89.5 -341zM563 344v778h361q122 0 192 -63.5t70 -165.5q0 -78 -43 -134.5t-121 -76.5l244 -338h-166l-232 320h-157v-320h-148zM711 786h204q58 0 89.5 27.5 t31.5 75.5q0 51 -31.5 78.5t-89.5 27.5h-204v-209z" />
<glyph unicode="&#xaf;" horiz-adv-x="1050" d="M233 1245v158h576v-158h-576z" />
<glyph unicode="&#xb0;" horiz-adv-x="839" d="M100 1143q0 130 95 223.5t225 93.5t224.5 -93.5t94.5 -223.5q0 -129 -95 -222.5t-224 -93.5t-224.5 93.5t-95.5 222.5zM238 1143q0 -77 53 -131t129 -54t129 54t53 131t-53 131.5t-129 54.5t-129 -54.5t-53 -131.5z" />
<glyph unicode="&#xb1;" horiz-adv-x="1292" d="M139 74v196h1014v-196h-1014zM139 756v198h406v346h200v-346h408v-198h-408v-342h-200v342h-406z" />
<glyph unicode="&#xb4;" horiz-adv-x="974" d="M324 1178l194 286h277l-271 -286h-200z" />
<glyph unicode="&#xb5;" horiz-adv-x="1277" d="M158 -410v1416h223v-566q0 -62 15 -110t37.5 -75.5t54.5 -45t62 -23.5t64 -6q84 0 162.5 48t122.5 116v662h221v-1006h-221v133q-144 -160 -344 -160q-104 0 -174 47v-430h-223z" />
<glyph unicode="&#xb6;" horiz-adv-x="1126" d="M82 1026q0 183 126 295.5t347 112.5h391v-1434h-225v618h-166q-221 0 -347 112.5t-126 295.5z" />
<glyph unicode="&#xb7;" horiz-adv-x="512" d="M113 791q0 59 42 101t103 42q58 0 100.5 -42t42.5 -101q0 -61 -42 -103.5t-101 -42.5q-61 0 -103 42t-42 104z" />
<glyph unicode="&#xb8;" horiz-adv-x="1009" d="M252 -283l219 299h180l-143 -299h-256z" />
<glyph unicode="&#xba;" horiz-adv-x="933" d="M51 1047q0 169 118 284t300 115t298 -114.5t116 -284.5t-116 -285t-298 -115t-300 115.5t-118 284.5zM227 1049q0 -106 68.5 -177t173.5 -71q104 0 172 71t68 177q0 103 -68 173t-172 70q-105 0 -173.5 -69.5t-68.5 -173.5z" />
<glyph unicode="&#xbb;" horiz-adv-x="1153" d="M72 78l331 426l-331 426h225l295 -371v-113l-295 -368h-225zM561 78l334 426l-334 426h225l295 -371v-113l-295 -368h-225z" />
<glyph unicode="&#xbf;" horiz-adv-x="991" d="M76 -25q0 77 32.5 144t87.5 116t118 84t135 58v176h213v-285q-92 -19 -170.5 -55.5t-133.5 -96.5t-55 -130q0 -99 74.5 -153t197.5 -54q176 0 359 115v-195q-76 -55 -180 -87t-215 -32q-125 0 -228.5 44.5t-169 136t-65.5 214.5zM406 877q0 61 41.5 103t101.5 42 q61 0 102 -41.5t41 -103.5q0 -59 -41 -101.5t-102 -42.5q-60 0 -101.5 42.5t-41.5 101.5z" />
<glyph unicode="&#xc0;" horiz-adv-x="1560" d="M45 0l627 1442h217l627 -1442h-242l-156 356h-680l-153 -356h-240zM418 1847h276l195 -286h-203zM516 555h524l-262 602z" />
<glyph unicode="&#xc1;" horiz-adv-x="1560" d="M45 0l627 1442h217l627 -1442h-242l-156 356h-680l-153 -356h-240zM516 555h524l-262 602zM678 1561l194 286h277l-268 -286h-203z" />
<glyph unicode="&#xc2;" horiz-adv-x="1560" d="M45 0l627 1442h217l627 -1442h-242l-156 356h-680l-153 -356h-240zM438 1561l234 286h229l234 -286h-207l-142 174l-141 -174h-207zM516 555h524l-262 602z" />
<glyph unicode="&#xc3;" horiz-adv-x="1560" d="M45 0l627 1442h217l627 -1442h-242l-156 356h-680l-153 -356h-240zM430 1577q2 109 60 184.5t149 75.5q47 0 99 -25t99 -50t81 -25q65 0 81 94h134q-2 -108 -59.5 -184t-149.5 -76q-46 0 -97.5 25t-98.5 50t-81 25q-69 0 -84 -94h-133zM516 555h524l-262 602z" />
<glyph unicode="&#xc4;" horiz-adv-x="1560" d="M45 0l627 1442h217l627 -1442h-242l-156 356h-680l-153 -356h-240zM446 1702q0 51 36.5 87t88.5 36q51 0 86 -36t35 -87t-35 -87t-86 -36q-52 0 -88.5 36t-36.5 87zM516 555h524l-262 602zM870 1702q0 51 37 87t88 36t86 -36t35 -87t-35 -87t-86 -36t-88 36t-37 87z" />
<glyph unicode="&#xc5;" horiz-adv-x="1560" d="M45 0l627 1442h217l627 -1442h-242l-156 356h-680l-153 -356h-240zM516 555h524l-262 602zM580 1706q0 84 59 143.5t143 59.5q82 0 141.5 -60t59.5 -143t-59.5 -142t-141.5 -59q-84 0 -143 58.5t-59 142.5zM678 1706q0 -43 30 -72.5t74 -29.5q42 0 72.5 30t30.5 72 t-30.5 73t-72.5 31q-44 0 -74 -30.5t-30 -73.5z" />
<glyph unicode="&#xc6;" horiz-adv-x="2146" d="M14 0l842 1434h1176v-207h-781v-359h633v-206h-633v-455h807v-207h-1032v356h-553l-209 -356h-250zM590 555h436v672h-43z" />
<glyph unicode="&#xc7;" horiz-adv-x="1400" d="M127 717q0 214 98.5 384t271 264.5t386.5 94.5q222 0 389 -96v-227q-173 112 -387 112q-148 0 -268.5 -68t-189.5 -190t-69 -274q0 -153 70.5 -275t192.5 -190t272 -68q243 0 410 131v-227q-140 -90 -326 -108l-125 -263h-256l190 263q-141 15 -262.5 76t-209 156.5 t-137.5 225.5t-50 279z" />
<glyph unicode="&#xc8;" horiz-adv-x="1312" d="M178 0v1434h1020v-207h-795v-359h648v-206h-648v-455h822v-207h-1047zM356 1847h277l194 -286h-202z" />
<glyph unicode="&#xc9;" horiz-adv-x="1312" d="M178 0v1434h1020v-207h-795v-359h648v-206h-648v-455h822v-207h-1047zM530 1561l195 286h276l-268 -286h-203z" />
<glyph unicode="&#xca;" horiz-adv-x="1312" d="M178 0v1434h1020v-207h-795v-359h648v-206h-648v-455h822v-207h-1047zM358 1561l234 286h229l234 -286h-207l-141 174l-142 -174h-207z" />
<glyph unicode="&#xcb;" horiz-adv-x="1312" d="M178 0v1434h1020v-207h-795v-359h648v-206h-648v-455h822v-207h-1047zM352 1702q0 51 36.5 87t88.5 36q51 0 86 -36t35 -87t-35 -87t-86 -36q-52 0 -88.5 36t-36.5 87zM776 1702q0 51 37 87t88 36t86 -36t35 -87t-35 -87t-86 -36t-88 36t-37 87z" />
<glyph unicode="&#xcc;" horiz-adv-x="604" d="M-66 1847h277l195 -286h-203zM188 0v1434h226v-1434h-226z" />
<glyph unicode="&#xcd;" horiz-adv-x="604" d="M188 0v1434h226v-1434h-226zM199 1561l194 286h277l-269 -286h-202z" />
<glyph unicode="&#xce;" horiz-adv-x="604" d="M-41 1561l234 286h229l233 -286h-206l-142 174l-141 -174h-207zM188 0v1434h226v-1434h-226z" />
<glyph unicode="&#xcf;" horiz-adv-x="600" d="M-35 1702q0 51 36.5 87t88.5 36q51 0 86 -36t35 -87t-35 -87t-86 -36q-52 0 -88.5 36t-36.5 87zM188 0v1434h226v-1434h-226zM389 1702q0 51 37 87t88 36t86 -36t35 -87t-35 -87t-86 -36t-88 36t-37 87z" />
<glyph unicode="&#xd0;" horiz-adv-x="1695" d="M70 639v203h211v592h505q229 0 407.5 -90.5t277 -253.5t98.5 -373t-98.5 -373t-277 -253.5t-407.5 -90.5h-505v639h-211zM506 207h260q267 0 419 137t152 373t-152 373t-419 137h-260v-385h309v-203h-309v-432z" />
<glyph unicode="&#xd1;" horiz-adv-x="1583" d="M178 0v1434h197l809 -1039v1039h221v-1434h-191l-815 1042v-1042h-221zM440 1577q2 109 60 184.5t149 75.5q47 0 99 -25t99 -50t81 -25q66 0 82 94h133q-2 -108 -59.5 -184t-149.5 -76q-46 0 -97.5 25t-98.5 50t-81 25q-69 0 -84 -94h-133z" />
<glyph unicode="&#xd2;" d="M127 717q0 207 94 377t262 268t375 98t375.5 -98t263 -268t94.5 -377t-94.5 -377t-263 -268.5t-375.5 -98.5t-375 98.5t-262 268.5t-94 377zM358 717q0 -228 143.5 -380.5t356.5 -152.5q214 0 358 152.5t144 380.5t-144 380t-358 152q-213 0 -356.5 -152t-143.5 -380z M510 1847h276l195 -286h-203z" />
<glyph unicode="&#xd3;" d="M127 717q0 207 94 377t262 268t375 98t375.5 -98t263 -268t94.5 -377t-94.5 -377t-263 -268.5t-375.5 -98.5t-375 98.5t-262 268.5t-94 377zM358 717q0 -228 143.5 -380.5t356.5 -152.5q214 0 358 152.5t144 380.5t-144 380t-358 152q-213 0 -356.5 -152t-143.5 -380z M727 1561l195 286h276l-268 -286h-203z" />
<glyph unicode="&#xd4;" d="M127 717q0 207 94 377t262 268t375 98t375.5 -98t263 -268t94.5 -377t-94.5 -377t-263 -268.5t-375.5 -98.5t-375 98.5t-262 268.5t-94 377zM358 717q0 -228 143.5 -380.5t356.5 -152.5q214 0 358 152.5t144 380.5t-144 380t-358 152q-213 0 -356.5 -152t-143.5 -380z M516 1561l234 286h229l233 -286h-206l-142 174l-141 -174h-207z" />
<glyph unicode="&#xd5;" d="M127 717q0 207 94 377t262 268t375 98t375.5 -98t263 -268t94.5 -377t-94.5 -377t-263 -268.5t-375.5 -98.5t-375 98.5t-262 268.5t-94 377zM358 717q0 -228 143.5 -380.5t356.5 -152.5q214 0 358 152.5t144 380.5t-144 380t-358 152q-213 0 -356.5 -152t-143.5 -380z M508 1577q2 109 60 184.5t149 75.5q47 0 99 -25t98.5 -50t80.5 -25q66 0 82 94h133q-2 -108 -59.5 -184t-149.5 -76q-46 0 -97.5 25t-98 50t-80.5 25q-69 0 -84 -94h-133z" />
<glyph unicode="&#xd6;" d="M127 717q0 207 94 377t262 268t375 98t375.5 -98t263 -268t94.5 -377t-94.5 -377t-263 -268.5t-375.5 -98.5t-375 98.5t-262 268.5t-94 377zM358 717q0 -228 143.5 -380.5t356.5 -152.5q214 0 358 152.5t144 380.5t-144 380t-358 152q-213 0 -356.5 -152t-143.5 -380z M524 1702q0 51 36.5 87t88.5 36q51 0 86 -36t35 -87t-35 -87t-86 -36q-52 0 -88.5 36t-36.5 87zM948 1702q0 51 37 87t88 36t86 -36t35 -87t-35 -87t-86 -36t-88 36t-37 87z" />
<glyph unicode="&#xd8;" d="M127 717q0 207 94 377t262 268t375 98q228 0 416 -125l82 99h186l-158 -191q98 -101 152.5 -237t54.5 -289q0 -207 -94.5 -377t-263 -268.5t-375.5 -98.5q-235 0 -418 125l-80 -98h-184l156 190q-98 101 -151.5 236.5t-53.5 290.5zM358 717q0 -207 117 -352l660 800 q-124 84 -277 84q-213 0 -356.5 -152t-143.5 -380zM582 268q124 -84 276 -84q214 0 358 152.5t144 380.5q0 204 -119 352z" />
<glyph unicode="&#xd9;" horiz-adv-x="1519" d="M160 606v828h225v-836q0 -200 102.5 -307t272.5 -107t273.5 107t103.5 307v836h225v-828q0 -152 -46 -273.5t-127.5 -199.5t-190.5 -119t-238 -41t-238 41t-190 119t-126.5 199t-45.5 274zM410 1847h276l195 -286h-203z" />
<glyph unicode="&#xda;" horiz-adv-x="1519" d="M160 606v828h225v-836q0 -200 102.5 -307t272.5 -107t273.5 107t103.5 307v836h225v-828q0 -152 -46 -273.5t-127.5 -199.5t-190.5 -119t-238 -41t-238 41t-190 119t-126.5 199t-45.5 274zM647 1561l195 286h276l-268 -286h-203z" />
<glyph unicode="&#xdb;" horiz-adv-x="1519" d="M160 606v828h225v-836q0 -200 102.5 -307t272.5 -107t273.5 107t103.5 307v836h225v-828q0 -152 -46 -273.5t-127.5 -199.5t-190.5 -119t-238 -41t-238 41t-190 119t-126.5 199t-45.5 274zM418 1561l233 286h230l233 -286h-207l-141 174l-141 -174h-207z" />
<glyph unicode="&#xdc;" horiz-adv-x="1519" d="M160 606v828h225v-836q0 -200 102.5 -307t272.5 -107t273.5 107t103.5 307v836h225v-828q0 -152 -46 -273.5t-127.5 -199.5t-190.5 -119t-238 -41t-238 41t-190 119t-126.5 199t-45.5 274zM428 1702q0 51 36.5 87t88.5 36q51 0 86 -36t35 -87t-35 -87t-86 -36 q-52 0 -88.5 36t-36.5 87zM852 1702q0 51 37 87t88 36t86 -36t35 -87t-35 -87t-86 -36t-88 36t-37 87z" />
<glyph unicode="&#xdd;" horiz-adv-x="1400" d="M33 1434h262l410 -580l409 580h254l-555 -779v-655h-225v649zM582 1561l194 286h277l-269 -286h-202z" />
<glyph unicode="&#xde;" horiz-adv-x="1355" d="M178 0v1434h225v-299h392q223 0 351 -114.5t128 -301.5q0 -189 -128 -307.5t-351 -118.5h-392v-293h-225zM403 500h373q128 0 199.5 56.5t71.5 158.5q0 103 -71 158t-200 55h-373v-428z" />
<glyph unicode="&#xdf;" horiz-adv-x="1271" d="M158 0v985q0 216 130.5 342.5t338.5 126.5t328 -106.5t120 -268.5q0 -114 -58 -190t-143 -101q129 -29 220.5 -132t91.5 -265q0 -194 -125 -306t-320 -112q-121 0 -186 29v195q66 -29 145 -29q121 0 197 65.5t76 176.5q0 124 -92 198t-248 74h-39v188h39q107 0 169 52 t62 143q0 89 -64 143t-169 54q-111 0 -181.5 -73t-70.5 -202v-987h-221z" />
<glyph unicode="&#xe0;" horiz-adv-x="1222" d="M74 311q0 -157 106.5 -247.5t270.5 -90.5q123 0 216.5 43.5t153.5 112.5q21 -72 77.5 -107.5t133.5 -35.5q86 0 129 32v168q-25 -14 -59 -14q-37 0 -60.5 27t-23.5 73v375q0 185 -128 285t-337 100q-216 0 -367 -86v-194q61 38 148 64t170 26q295 0 295 -219v-56 q-140 78 -322 78q-170 0 -286.5 -87.5t-116.5 -246.5zM262 1464h275l194 -286h-201zM295 324q0 73 63 114t172 41q142 0 269 -71v-123q-46 -51 -123.5 -86t-163.5 -35q-96 0 -156.5 40.5t-60.5 119.5z" />
<glyph unicode="&#xe1;" horiz-adv-x="1222" d="M74 311q0 -157 106.5 -247.5t270.5 -90.5q123 0 216.5 43.5t153.5 112.5q21 -72 77.5 -107.5t133.5 -35.5q86 0 129 32v168q-25 -14 -59 -14q-37 0 -60.5 27t-23.5 73v375q0 185 -128 285t-337 100q-216 0 -367 -86v-194q61 38 148 64t170 26q295 0 295 -219v-56 q-140 78 -322 78q-170 0 -286.5 -87.5t-116.5 -246.5zM295 324q0 73 63 114t172 41q142 0 269 -71v-123q-46 -51 -123.5 -86t-163.5 -35q-96 0 -156.5 40.5t-60.5 119.5zM418 1178l194 286h277l-271 -286h-200z" />
<glyph unicode="&#xe2;" horiz-adv-x="1222" d="M74 311q0 -157 106.5 -247.5t270.5 -90.5q123 0 216.5 43.5t153.5 112.5q21 -72 77.5 -107.5t133.5 -35.5q86 0 129 32v168q-25 -14 -59 -14q-37 0 -60.5 27t-23.5 73v375q0 185 -128 285t-337 100q-216 0 -367 -86v-194q61 38 148 64t170 26q295 0 295 -219v-56 q-140 78 -322 78q-170 0 -286.5 -87.5t-116.5 -246.5zM225 1178l234 286h229l234 -286h-207l-142 174l-141 -174h-207zM295 324q0 73 63 114t172 41q142 0 269 -71v-123q-46 -51 -123.5 -86t-163.5 -35q-96 0 -156.5 40.5t-60.5 119.5z" />
<glyph unicode="&#xe3;" horiz-adv-x="1222" d="M74 311q0 -157 106.5 -247.5t270.5 -90.5q123 0 216.5 43.5t153.5 112.5q21 -72 77.5 -107.5t133.5 -35.5q86 0 129 32v168q-25 -14 -59 -14q-37 0 -60.5 27t-23.5 73v375q0 185 -128 285t-337 100q-216 0 -367 -86v-194q61 38 148 64t170 26q295 0 295 -219v-56 q-140 78 -322 78q-170 0 -286.5 -87.5t-116.5 -246.5zM240 1198q2 110 59.5 186t149.5 76q46 0 97.5 -25t98 -50t80.5 -25q69 0 84 94h133q-2 -109 -60 -185.5t-149 -76.5q-47 0 -98.5 25t-98 50t-81.5 25q-67 0 -82 -94h-133zM295 324q0 73 63 114t172 41q142 0 269 -71 v-123q-46 -51 -123.5 -86t-163.5 -35q-96 0 -156.5 40.5t-60.5 119.5z" />
<glyph unicode="&#xe4;" horiz-adv-x="1222" d="M74 311q0 -157 106.5 -247.5t270.5 -90.5q123 0 216.5 43.5t153.5 112.5q21 -72 77.5 -107.5t133.5 -35.5q86 0 129 32v168q-25 -14 -59 -14q-37 0 -60.5 27t-23.5 73v375q0 185 -128 285t-337 100q-216 0 -367 -86v-194q61 38 148 64t170 26q295 0 295 -219v-56 q-140 78 -322 78q-170 0 -286.5 -87.5t-116.5 -246.5zM248 1327q0 51 36.5 87t88.5 36q51 0 86 -36t35 -87t-35 -87t-86 -36q-52 0 -88.5 36t-36.5 87zM295 324q0 73 63 114t172 41q142 0 269 -71v-123q-46 -51 -123.5 -86t-163.5 -35q-96 0 -156.5 40.5t-60.5 119.5z M672 1327q0 51 37 87t88 36t86 -36t35 -87t-35 -87t-86 -36t-88 36t-37 87z" />
<glyph unicode="&#xe5;" horiz-adv-x="1222" d="M74 311q0 -157 106.5 -247.5t270.5 -90.5q123 0 216.5 43.5t153.5 112.5q21 -72 77.5 -107.5t133.5 -35.5q86 0 129 32v168q-25 -14 -59 -14q-37 0 -60.5 27t-23.5 73v375q0 185 -128 285t-337 100q-216 0 -367 -86v-194q61 38 148 64t170 26q295 0 295 -219v-56 q-140 78 -322 78q-170 0 -286.5 -87.5t-116.5 -246.5zM295 324q0 73 63 114t172 41q142 0 269 -71v-123q-46 -51 -123.5 -86t-163.5 -35q-96 0 -156.5 40.5t-60.5 119.5zM383 1327q0 83 60 143t143 60t142.5 -60t59.5 -143q0 -82 -59.5 -141.5t-142.5 -59.5t-143 59.5 t-60 141.5zM481 1327q0 -41 31 -71.5t74 -30.5t73.5 30.5t30.5 71.5q0 44 -30.5 74.5t-73.5 30.5t-74 -30.5t-31 -74.5z" />
<glyph unicode="&#xe6;" horiz-adv-x="1875" d="M74 311q0 159 116.5 246.5t286.5 87.5q182 0 322 -78v56q0 219 -295 219q-83 0 -170 -26t-148 -64v194q151 86 367 86q114 0 215 -44t164 -122q69 78 166.5 122t210.5 44q94 0 173 -30.5t134 -82t93.5 -120.5t56.5 -145.5t18 -157.5v-58h-770q21 -127 124 -198.5 t257 -71.5q172 0 321 90v-186q-60 -44 -158.5 -71.5t-209.5 -27.5q-140 0 -258 54.5t-191 152.5q-33 -36 -72.5 -68t-96 -65.5t-128.5 -53.5t-149 -20q-165 0 -272 90.5t-107 247.5zM295 324q0 -80 58 -120t159 -40q96 0 180.5 42t132.5 105q-15 47 -24 99q-130 69 -269 69 q-110 0 -173.5 -41t-63.5 -114zM1016 606h545q-2 92 -70.5 166t-192.5 74q-122 0 -197 -70t-85 -170z" />
<glyph unicode="&#xe7;" horiz-adv-x="1064" d="M86 506q0 153 75 274.5t198.5 186.5t271.5 65q171 0 303 -69v-191q-135 66 -270 66q-150 0 -253.5 -94t-103.5 -240t103.5 -241t253.5 -95q158 0 286 76v-189q-90 -53 -198 -71l-127 -267h-256l190 260q-202 24 -337.5 168.5t-135.5 360.5z" />
<glyph unicode="&#xe8;" horiz-adv-x="1171" d="M86 504q0 225 143.5 376.5t372.5 151.5q94 0 173 -30.5t134.5 -82t94 -120.5t57 -145.5t18.5 -157.5v-58h-770q21 -127 123.5 -198.5t255.5 -71.5q175 0 324 90v-186q-62 -44 -160.5 -71.5t-210.5 -27.5q-153 0 -278.5 64.5t-201 187t-75.5 279.5zM307 1464h275l194 -286 h-201zM311 606h545q-2 92 -71 166t-193 74q-121 0 -196 -70.5t-85 -169.5z" />
<glyph unicode="&#xe9;" horiz-adv-x="1171" d="M86 504q0 225 143.5 376.5t372.5 151.5q94 0 173 -30.5t134.5 -82t94 -120.5t57 -145.5t18.5 -157.5v-58h-770q21 -127 123.5 -198.5t255.5 -71.5q175 0 324 90v-186q-62 -44 -160.5 -71.5t-210.5 -27.5q-153 0 -278.5 64.5t-201 187t-75.5 279.5zM311 606h545 q-2 92 -71 166t-193 74q-121 0 -196 -70.5t-85 -169.5zM440 1178l195 286h276l-270 -286h-201z" />
<glyph unicode="&#xea;" horiz-adv-x="1171" d="M86 504q0 225 143.5 376.5t372.5 151.5q94 0 173 -30.5t134.5 -82t94 -120.5t57 -145.5t18.5 -157.5v-58h-770q21 -127 123.5 -198.5t255.5 -71.5q175 0 324 90v-186q-62 -44 -160.5 -71.5t-210.5 -27.5q-153 0 -278.5 64.5t-201 187t-75.5 279.5zM260 1178l234 286h229 l233 -286h-206l-142 174l-141 -174h-207zM311 606h545q-2 92 -71 166t-193 74q-121 0 -196 -70.5t-85 -169.5z" />
<glyph unicode="&#xeb;" horiz-adv-x="1171" d="M86 504q0 225 143.5 376.5t372.5 151.5q94 0 173 -30.5t134.5 -82t94 -120.5t57 -145.5t18.5 -157.5v-58h-770q21 -127 123.5 -198.5t255.5 -71.5q175 0 324 90v-186q-62 -44 -160.5 -71.5t-210.5 -27.5q-153 0 -278.5 64.5t-201 187t-75.5 279.5zM276 1327q0 51 36.5 87 t88.5 36q51 0 86 -36t35 -87t-35 -87t-86 -36q-52 0 -88.5 36t-36.5 87zM311 606h545q-2 92 -71 166t-193 74q-121 0 -196 -70.5t-85 -169.5zM700 1327q0 51 37 87t88 36t86 -36t35 -87t-35 -87t-86 -36t-88 36t-37 87z" />
<glyph unicode="&#xec;" horiz-adv-x="575" d="M-94 1464h274l195 -286h-201zM176 0v1006h223v-1006h-223z" />
<glyph unicode="&#xed;" horiz-adv-x="575" d="M176 0v1006h223v-1006h-223zM178 1180l193 286h276l-270 -286h-199z" />
<glyph unicode="&#xee;" horiz-adv-x="575" d="M-61 1178l233 286h229l234 -286h-207l-141 174l-142 -174h-206zM176 0v1006h223v-1006h-223z" />
<glyph unicode="&#xef;" horiz-adv-x="575" d="M-47 1327q0 51 36.5 87t88.5 36q51 0 86 -36t35 -87t-35 -87t-86 -36q-52 0 -88.5 36t-36.5 87zM176 0v1006h223v-1006h-223zM377 1327q0 51 37 87t88 36t86 -36t35 -87t-35 -87t-86 -36t-88 36t-37 87z" />
<glyph unicode="&#xf0;" horiz-adv-x="1226" d="M86 469q0 204 130 337.5t333 133.5q130 0 215 -49l-191 252l-241 -99l-84 113l241 96l-135 181h228l82 -111l194 78l84 -111l-194 -78l219 -294q92 -123 133 -219t41 -212q0 -139 -66 -256t-188 -187.5t-275 -70.5q-114 0 -213.5 40t-167.5 108t-106.5 158.5t-38.5 189.5 zM305 473q0 -128 88 -216.5t219 -88.5t220.5 88.5t89.5 216.5t-89.5 217.5t-220.5 89.5t-219 -89t-88 -218z" />
<glyph unicode="&#xf1;" horiz-adv-x="1257" d="M158 0h221v662q43 69 121.5 116t163.5 47q44 0 81.5 -11t74 -37t58 -80.5t21.5 -131.5v-565h221v614q0 195 -96.5 306.5t-275.5 111.5q-221 0 -369 -160v134h-221v-1006zM309 1198q2 110 59.5 186t149.5 76q46 0 97.5 -25t98.5 -50t81 -25q69 0 84 94h133 q-2 -109 -60 -185.5t-149 -76.5q-47 0 -98.5 25t-98.5 50t-82 25q-67 0 -82 -94h-133z" />
<glyph unicode="&#xf2;" horiz-adv-x="1275" d="M86 504q0 108 40.5 204.5t112.5 168t176 113.5t224 42t223.5 -42t175 -113.5t112 -168t40.5 -204.5q0 -145 -69 -266t-196 -193t-286 -72q-120 0 -224 42t-176 114t-112.5 169.5t-40.5 205.5zM297 1464h274l195 -286h-201zM307 504q0 -143 95 -239.5t237 -96.5t236 96.5 t94 239.5q0 141 -94.5 237.5t-235.5 96.5q-142 0 -237 -97t-95 -237z" />
<glyph unicode="&#xf3;" horiz-adv-x="1275" d="M86 504q0 108 40.5 204.5t112.5 168t176 113.5t224 42t223.5 -42t175 -113.5t112 -168t40.5 -204.5q0 -145 -69 -266t-196 -193t-286 -72q-120 0 -224 42t-176 114t-112.5 169.5t-40.5 205.5zM307 504q0 -143 95 -239.5t237 -96.5t236 96.5t94 239.5q0 141 -94.5 237.5 t-235.5 96.5q-142 0 -237 -97t-95 -237zM518 1178l195 286h276l-270 -286h-201z" />
<glyph unicode="&#xf4;" horiz-adv-x="1275" d="M86 504q0 108 40.5 204.5t112.5 168t176 113.5t224 42t223.5 -42t175 -113.5t112 -168t40.5 -204.5q0 -145 -69 -266t-196 -193t-286 -72q-120 0 -224 42t-176 114t-112.5 169.5t-40.5 205.5zM291 1178l233 286h230l233 -286h-207l-141 174l-141 -174h-207zM307 504 q0 -143 95 -239.5t237 -96.5t236 96.5t94 239.5q0 141 -94.5 237.5t-235.5 96.5q-142 0 -237 -97t-95 -237z" />
<glyph unicode="&#xf5;" horiz-adv-x="1275" d="M86 504q0 108 40.5 204.5t112.5 168t176 113.5t224 42t223.5 -42t175 -113.5t112 -168t40.5 -204.5q0 -145 -69 -266t-196 -193t-286 -72q-120 0 -224 42t-176 114t-112.5 169.5t-40.5 205.5zM287 1198q2 110 59.5 186t149.5 76q46 0 97.5 -25t98 -50t80.5 -25 q69 0 84 94h133q-2 -109 -60 -185.5t-149 -76.5q-47 0 -98.5 25t-98 50t-81.5 25q-67 0 -82 -94h-133zM307 504q0 -143 95 -239.5t237 -96.5t236 96.5t94 239.5q0 141 -94.5 237.5t-235.5 96.5q-142 0 -237 -97t-95 -237z" />
<glyph unicode="&#xf6;" horiz-adv-x="1275" d="M86 504q0 108 40.5 204.5t112.5 168t176 113.5t224 42t223.5 -42t175 -113.5t112 -168t40.5 -204.5q0 -145 -69 -266t-196 -193t-286 -72q-120 0 -224 42t-176 114t-112.5 169.5t-40.5 205.5zM303 1327q0 51 36.5 87t88.5 36q51 0 86 -36t35 -87t-35 -87t-86 -36 q-52 0 -88.5 36t-36.5 87zM307 504q0 -143 95 -239.5t237 -96.5t236 96.5t94 239.5q0 141 -94.5 237.5t-235.5 96.5q-142 0 -237 -97t-95 -237zM727 1327q0 51 37 87t88 36t86 -36t35 -87t-35 -87t-86 -36t-88 36t-37 87z" />
<glyph unicode="&#xf7;" horiz-adv-x="1259" d="M139 573v199h981v-199h-981zM481 233q0 62 43.5 106t106.5 44q62 0 104.5 -44t42.5 -106q0 -63 -42 -105t-105 -42t-106.5 42t-43.5 105zM481 1116q0 62 43.5 105t106.5 43t105 -43t42 -105q0 -63 -42 -106t-105 -43t-106.5 43t-43.5 106z" />
<glyph unicode="&#xf8;" horiz-adv-x="1275" d="M86 504q0 108 40.5 204.5t112.5 168t176 113.5t224 42q167 0 299 -80l45 54h168l-113 -134q73 -71 112.5 -166.5t39.5 -201.5q0 -145 -69 -266t-196 -193t-286 -72q-165 0 -299 78l-45 -51h-168l111 131q-73 73 -112.5 169t-39.5 204zM307 504q0 -122 70 -211l426 502 q-75 43 -164 43q-142 0 -237 -97t-95 -237zM473 209q74 -41 166 -41q142 0 236 96.5t94 239.5q0 114 -70 207z" />
<glyph unicode="&#xf9;" horiz-adv-x="1259" d="M139 391q0 -195 97 -306.5t276 -111.5q221 0 369 160v-133h221v1006h-221v-662q-43 -69 -122 -116.5t-163 -47.5q-44 0 -81.5 11t-74.5 37t-58.5 80.5t-21.5 131.5v566h-221v-615zM309 1464h275l194 -286h-200z" />
<glyph unicode="&#xfa;" horiz-adv-x="1259" d="M139 391q0 -195 97 -306.5t276 -111.5q221 0 369 160v-133h221v1006h-221v-662q-43 -69 -122 -116.5t-163 -47.5q-44 0 -81.5 11t-74.5 37t-58.5 80.5t-21.5 131.5v566h-221v-615zM471 1178l195 286h276l-270 -286h-201z" />
<glyph unicode="&#xfb;" horiz-adv-x="1259" d="M139 391q0 -195 97 -306.5t276 -111.5q221 0 369 160v-133h221v1006h-221v-662q-43 -69 -122 -116.5t-163 -47.5q-44 0 -81.5 11t-74.5 37t-58.5 80.5t-21.5 131.5v566h-221v-615zM274 1178l234 286h229l234 -286h-207l-141 174l-142 -174h-207z" />
<glyph unicode="&#xfc;" horiz-adv-x="1259" d="M139 391q0 -195 97 -306.5t276 -111.5q221 0 369 160v-133h221v1006h-221v-662q-43 -69 -122 -116.5t-163 -47.5q-44 0 -81.5 11t-74.5 37t-58.5 80.5t-21.5 131.5v566h-221v-615zM287 1327q0 51 36.5 87t88.5 36q51 0 85.5 -36t34.5 -87t-34.5 -87t-85.5 -36 q-52 0 -88.5 36t-36.5 87zM711 1327q0 51 37 87t88 36t85.5 -36t34.5 -87t-34.5 -87t-85.5 -36t-88 36t-37 87z" />
<glyph unicode="&#xfd;" horiz-adv-x="1169" d="M43 1006h246l303 -709l293 709h239l-481 -1115q-134 -311 -383 -311q-126 0 -182 33v194q65 -32 145 -32q85 0 144 63t116 199zM455 1178l194 286h277l-271 -286h-200z" />
<glyph unicode="&#xfe;" horiz-adv-x="1310" d="M158 -410v1844h221v-566q55 72 145.5 118t212.5 46q141 0 253.5 -72t173.5 -192.5t61 -265.5t-61 -265.5t-173.5 -192t-253.5 -71.5q-122 0 -212.5 46t-145.5 118v-547h-221zM379 346q41 -76 121 -127t178 -51q139 0 231 97t92 237q0 141 -92 238.5t-231 97.5 q-99 0 -179 -51t-120 -130v-311z" />
<glyph unicode="&#xff;" horiz-adv-x="1169" d="M43 1006h246l303 -709l293 709h239l-481 -1115q-134 -311 -383 -311q-126 0 -182 33v194q65 -32 145 -32q85 0 144 63t116 199zM244 1327q0 51 36.5 87t88.5 36q51 0 85.5 -36t34.5 -87t-34.5 -87t-85.5 -36q-52 0 -88.5 36t-36.5 87zM668 1327q0 51 37 87t88 36 t85.5 -36t34.5 -87t-34.5 -87t-85.5 -36t-88 36t-37 87z" />
<glyph unicode="&#x131;" horiz-adv-x="575" d="M176 0v1006h223v-1006h-223z" />
<glyph unicode="&#x152;" horiz-adv-x="2258" d="M127 717q0 210 98 373t275.5 253.5t406.5 90.5h1237v-207h-780v-359h633v-206h-633v-455h807v-207h-1264q-229 0 -406.5 90.5t-275.5 253.5t-98 373zM358 717q0 -238 151 -374t423 -136h205v1020h-205q-272 0 -423 -136t-151 -374z" />
<glyph unicode="&#x153;" horiz-adv-x="2039" d="M86 504q0 108 40.5 204.5t111.5 168t175 113.5t224 42q134 0 244 -51.5t184 -142.5q69 91 174 142.5t234 51.5q94 0 173 -30.5t134 -82t93.5 -120.5t56.5 -145.5t18 -157.5v-58h-770q23 -128 125 -199t256 -71q172 0 321 90v-186q-61 -44 -159.5 -71.5t-211.5 -27.5 q-134 0 -249.5 52.5t-192.5 146.5q-64 -89 -184 -144t-248 -55q-159 0 -285.5 72t-195 193t-68.5 266zM307 504q0 -143 94 -239.5t236 -96.5t236 96.5t94 239.5q0 141 -94.5 237.5t-235.5 96.5t-235.5 -96.5t-94.5 -237.5zM1180 606h544q-3 93 -71 166.5t-191 73.5 q-121 0 -196.5 -70.5t-85.5 -169.5z" />
<glyph unicode="&#x178;" horiz-adv-x="1400" d="M33 1434h262l410 -580l409 580h254l-555 -779v-655h-225v649zM371 1702q0 51 36.5 87t88.5 36q51 0 85.5 -36t34.5 -87t-34.5 -87t-85.5 -36q-52 0 -88.5 36t-36.5 87zM795 1702q0 51 37 87t88 36t85.5 -36t34.5 -87t-34.5 -87t-85.5 -36t-88 36t-37 87z" />
<glyph unicode="&#x192;" horiz-adv-x="1062" d="M-135 -197q73 -28 143 -28q102 0 168 69.5t86 200.5l94 617h-235v188h268l31 194q14 89 45.5 162t82.5 129.5t127.5 87.5t172.5 31q110 0 188 -37v-184q-68 29 -145 29q-105 0 -167 -62.5t-85 -200.5l-25 -149h299v-188h-327l-107 -672q-11 -68 -32.5 -127t-57.5 -111.5 t-83 -90t-112.5 -59.5t-142.5 -22q-109 0 -186 39v184z" />
<glyph unicode="&#x2c6;" horiz-adv-x="1097" d="M203 1178l233 286h230l233 -286h-207l-141 174l-141 -174h-207z" />
<glyph unicode="&#x2c7;" horiz-adv-x="1058" d="M143 1464h207l142 -174l141 174h207l-234 -286h-229z" />
<glyph unicode="&#x2d8;" horiz-adv-x="997" d="M184 1464h164q3 -69 46 -115t106 -46q64 0 106 45.5t45 115.5h162q-3 -141 -94 -228t-219 -87q-131 0 -221.5 86.5t-94.5 228.5z" />
<glyph unicode="&#x2d9;" horiz-adv-x="1142" d="M444 1327q0 52 37 88.5t90 36.5q54 0 90.5 -36t36.5 -89t-36.5 -90t-90.5 -37q-53 0 -90 37t-37 90z" />
<glyph unicode="&#x2da;" horiz-adv-x="1120" d="M336 1327q0 83 60 143t143 60t142.5 -60t59.5 -143q0 -82 -59.5 -141.5t-142.5 -59.5t-143 59.5t-60 141.5zM434 1327q0 -41 31 -71.5t74 -30.5t73.5 30.5t30.5 71.5q0 44 -30.5 74.5t-73.5 30.5t-74 -30.5t-31 -74.5z" />
<glyph unicode="&#x2db;" horiz-adv-x="1032" d="M377 -193q0 111 90 201h141q-73 -73 -73 -155q0 -53 35 -85t92 -32q37 0 77 14v-135q-42 -14 -114 -14q-114 0 -181 58.5t-67 147.5z" />
<glyph unicode="&#x2dc;" horiz-adv-x="1052" d="M172 1198q2 110 59.5 186t149.5 76q46 0 97.5 -25t98 -50t80.5 -25q69 0 84 94h133q-2 -109 -59.5 -185.5t-148.5 -76.5q-47 0 -98.5 25t-98.5 50t-82 25q-67 0 -82 -94h-133z" />
<glyph unicode="&#x2dd;" horiz-adv-x="1236" d="M180 1178l195 286h276l-268 -286h-203zM602 1178l195 286h274l-268 -286h-201z" />
<glyph unicode="&#x3a9;" horiz-adv-x="1634" d="M172 768q0 142 45.5 268t127 220t204 149t268.5 55q145 0 267.5 -55t204.5 -149t127.5 -220t45.5 -268q0 -167 -66.5 -315.5t-166.5 -245.5h227v-207h-487v170q110 86 186 235t76 326q0 232 -114.5 375t-299.5 143t-300.5 -143.5t-115.5 -374.5q0 -177 77 -326t188 -235 v-170h-488v207h225q-100 96 -165.5 245t-65.5 316z" />
<glyph unicode="&#x3c0;" horiz-adv-x="1425" d="M68 811v195h1249v-195h-201v-502q0 -62 29.5 -92.5t81.5 -30.5q44 0 84 21v-191q-63 -32 -164 -32q-40 0 -74.5 7t-68 26t-57 48t-38 75.5t-14.5 107.5v563h-412v-811h-221v811h-194z" />
<glyph unicode="&#x401;" horiz-adv-x="1312" d="M178 0v1434h1020v-207h-795v-359h648v-206h-648v-455h822v-207h-1047zM352 1702q0 51 36.5 87t88.5 36q51 0 86 -36t35 -87t-35 -87t-86 -36q-52 0 -88.5 36t-36.5 87zM776 1702q0 51 37 87t88 36t86 -36t35 -87t-35 -87t-86 -36t-88 36t-37 87z" />
<glyph unicode="&#x402;" horiz-adv-x="1574" d="M68 1227v207h1034v-207h-496v-416q165 68 369 68q232 0 375 -130t143 -335q0 -191 -124.5 -316t-336.5 -125q-104 0 -196 29v211q85 -29 165 -29q122 0 196.5 65.5t74.5 172.5q0 104 -87.5 175t-238.5 71q-188 0 -340 -76v-592h-225v1227h-313z" />
<glyph unicode="&#x403;" horiz-adv-x="1255" d="M178 0v1434h1004v-207h-779v-1227h-225zM520 1561l195 286h276l-268 -286h-203z" />
<glyph unicode="&#x404;" horiz-adv-x="1392" d="M127 717q0 206 97.5 376.5t270 268.5t382.5 98q211 0 387 -98v-227q-173 114 -392 114q-185 0 -321 -114t-168 -297h600v-207h-612q26 -197 169 -322t339 -125q130 0 229.5 32t185.5 101v-231q-173 -113 -415 -113q-158 0 -297.5 58t-239 157t-157.5 237t-58 292z" />
<glyph unicode="&#x405;" horiz-adv-x="1286" d="M92 127v244q86 -76 232 -131.5t294 -55.5q141 0 236.5 56.5t95.5 156.5q0 104 -106 162q-59 33 -229 82q-18 5 -27 8q-68 20 -107.5 32.5t-97 34.5t-91 42.5t-72.5 52.5t-60 67.5t-35 84t-14 106.5q0 177 139 284t381 107q258 0 459 -119v-225q-94 58 -215 95.5 t-240 37.5q-148 0 -220.5 -51t-72.5 -131q0 -29 9 -52.5t31.5 -43t43 -33t61.5 -28t67.5 -23t80 -23.5t82.5 -24q82 -25 138.5 -47t123.5 -60t107.5 -81t68 -107.5t27.5 -143.5q0 -132 -75.5 -230.5t-199.5 -148t-276 -49.5q-159 0 -300 41.5t-239 112.5z" />
<glyph unicode="&#x406;" horiz-adv-x="604" d="M188 0v1434h226v-1434h-226z" />
<glyph unicode="&#x407;" horiz-adv-x="600" d="M-35 1702q0 51 36.5 87t88.5 36q51 0 86 -36t35 -87t-35 -87t-86 -36q-52 0 -88.5 36t-36.5 87zM188 0v1434h226v-1434h-226zM389 1702q0 51 37 87t88 36t86 -36t35 -87t-35 -87t-86 -36t-88 36t-37 87z" />
<glyph unicode="&#x408;" horiz-adv-x="1042" d="M66 61v224q58 -46 136 -73.5t156 -27.5q149 0 223 74t74 234v942h226v-979q0 -129 -36.5 -224t-103 -150.5t-151 -81.5t-189.5 -26q-205 0 -335 88z" />
<glyph unicode="&#x409;" horiz-adv-x="2265" d="M20 4v205q31 -8 76 -8q47 0 84.5 19t64.5 53.5t46 92.5t31.5 125.5t19.5 163.5t9.5 195.5t2.5 232.5l6 351h936v-496h351q249 0 392.5 -130.5t143.5 -340.5q0 -207 -143.5 -337t-392.5 -130h-576v1227h-493l-7 -307q-4 -192 -18 -331t-45.5 -256.5t-83 -189 t-129.5 -110.5t-186 -39q-58 0 -89 10zM1296 207h338q151 0 235.5 68.5t84.5 191.5q0 124 -84.5 194t-235.5 70h-338v-524z" />
<glyph unicode="&#x40a;" horiz-adv-x="2304" d="M178 0v1434h225v-506h707v506h225v-506h353q247 0 390.5 -129t143.5 -336q0 -205 -143.5 -334t-390.5 -129h-578v721h-707v-721h-225zM1335 207h348q147 0 229.5 67t82.5 187q0 123 -82.5 191.5t-229.5 68.5h-348v-514z" />
<glyph unicode="&#x40b;" horiz-adv-x="1619" d="M68 1227v207h1034v-207h-496v-412q165 64 369 64q518 0 518 -453v-426h-225v379q0 159 -79.5 224t-248.5 65q-177 0 -334 -72v-596h-225v1227h-313z" />
<glyph unicode="&#x40c;" horiz-adv-x="1396" d="M178 0v1434h225v-586l588 586h289l-664 -656l770 -778h-307l-676 688v-688h-225zM549 1561l194 286h277l-268 -286h-203z" />
<glyph unicode="&#x40e;" horiz-adv-x="1349" d="M41 1434h254l424 -777l352 777h242l-529 -1127q-157 -334 -411 -334q-133 0 -203 33v213q74 -35 164 -35q87 0 144 46.5t124 187.5zM311 1855h189q0 -75 46.5 -121t127.5 -46q79 0 126.5 46.5t49.5 120.5h188q-1 -155 -103.5 -246t-258.5 -91q-161 0 -262.5 90.5 t-102.5 246.5z" />
<glyph unicode="&#x40f;" horiz-adv-x="1511" d="M178 0v1434h225v-1227h705v1227h225v-1434h-471v-307h-215v307h-469z" />
<glyph unicode="&#x410;" horiz-adv-x="1560" d="M45 0l627 1442h217l627 -1442h-242l-156 356h-680l-153 -356h-240zM516 555h524l-262 602z" />
<glyph unicode="&#x411;" horiz-adv-x="1417" d="M178 0v1434h1012v-207h-787v-303h381q245 0 386 -128.5t141 -334.5q0 -207 -141 -334t-386 -127h-606zM403 207h361q151 0 234 66.5t83 187.5q0 120 -83.5 188t-233.5 68h-361v-510z" />
<glyph unicode="&#x412;" horiz-adv-x="1476" d="M178 0v1434h651q192 0 307 -93.5t115 -259.5q0 -110 -54 -186.5t-136 -108.5q132 -25 218.5 -125.5t86.5 -257.5q0 -182 -130 -292.5t-353 -110.5h-705zM403 207h439q132 0 206 61t74 168t-73.5 164t-206.5 57h-439v-450zM403 856h388q113 0 175 48t62 138t-62 137.5 t-175 47.5h-388v-371z" />
<glyph unicode="&#x413;" horiz-adv-x="1255" d="M178 0v1434h1004v-207h-779v-1227h-225z" />
<glyph unicode="&#x414;" horiz-adv-x="1603" d="M29 207h137q115 170 167 400.5t52 627.5v199h948v-1227h207v-514h-213v307h-1085v-307h-213v514zM412 207h696v1020h-504q0 -358 -43 -601t-149 -419z" />
<glyph unicode="&#x415;" horiz-adv-x="1312" d="M178 0v1434h1020v-207h-795v-359h648v-206h-648v-455h822v-207h-1047z" />
<glyph unicode="&#x416;" horiz-adv-x="2072" d="M20 0l682 750l-596 684h279l537 -613v613h225v-613l539 613h282l-602 -684l686 -750h-295l-610 657v-657h-225v659l-607 -659h-295z" />
<glyph unicode="&#x417;" horiz-adv-x="1286" d="M82 96v221q94 -59 221.5 -96t247.5 -37q183 0 288 68.5t105 183.5q0 101 -96.5 162t-253.5 61h-178v207h205q132 0 203 51.5t71 141.5q0 92 -83.5 141t-225.5 49q-229 0 -443 -104v207q208 108 455 108q233 0 376.5 -106t143.5 -283q0 -62 -22 -115t-57.5 -88t-71 -58 t-72.5 -36q51 -16 98 -44t89.5 -71t68 -105.5t25.5 -135.5q0 -192 -159.5 -318.5t-432.5 -126.5q-303 0 -502 123z" />
<glyph unicode="&#x418;" horiz-adv-x="1566" d="M178 0v1434h225v-1053l789 1053h197v-1434h-226v1057l-792 -1057h-193z" />
<glyph unicode="&#x419;" horiz-adv-x="1566" d="M178 0v1434h225v-1053l789 1053h197v-1434h-226v1057l-792 -1057h-193zM418 1855h188q0 -75 46.5 -121t127.5 -46q79 0 126.5 46.5t49.5 120.5h189q-1 -155 -104 -246t-259 -91q-161 0 -262 90.5t-102 246.5z" />
<glyph unicode="&#x41a;" horiz-adv-x="1396" d="M178 0v1434h225v-586l588 586h289l-664 -656l770 -778h-307l-676 688v-688h-225z" />
<glyph unicode="&#x41b;" horiz-adv-x="1492" d="M20 4v205q31 -8 76 -8q50 0 89 20t66.5 63.5t46.5 102t30.5 145.5t17.5 184t8 226l6 492h955v-1434h-225v1227h-512l-7 -307q-4 -192 -18 -331t-45.5 -256.5t-83 -189t-129.5 -110.5t-186 -39q-58 0 -89 10z" />
<glyph unicode="&#x41c;" horiz-adv-x="1736" d="M178 0v1434h230l464 -646l461 646h226v-1434h-226v1090l-399 -541h-131l-400 541v-1090h-225z" />
<glyph unicode="&#x41d;" horiz-adv-x="1554" d="M178 0v1434h225v-566h748v566h225v-1434h-225v662h-748v-662h-225z" />
<glyph unicode="&#x41e;" d="M127 717q0 207 94 377t262 268t375 98t375.5 -98t263 -268t94.5 -377t-94.5 -377t-263 -268.5t-375.5 -98.5t-375 98.5t-262 268.5t-94 377zM358 717q0 -228 143.5 -380.5t356.5 -152.5q214 0 358 152.5t144 380.5t-144 380t-358 152q-213 0 -356.5 -152t-143.5 -380z " />
<glyph unicode="&#x41f;" horiz-adv-x="1521" d="M178 0v1434h1165v-1434h-225v1227h-715v-1227h-225z" />
<glyph unicode="&#x420;" horiz-adv-x="1355" d="M178 0v1434h617q223 0 351 -115.5t128 -300.5q0 -189 -128 -307.5t-351 -118.5h-392v-592h-225zM403 799h373q127 0 199 56.5t72 158.5q0 103 -71.5 158t-199.5 55h-373v-428z" />
<glyph unicode="&#x421;" horiz-adv-x="1400" d="M127 717q0 214 98.5 384t271 264.5t386.5 94.5q222 0 389 -96v-227q-173 112 -387 112q-148 0 -268.5 -68t-189.5 -190t-69 -274q0 -153 70.5 -275t192.5 -190t272 -68q243 0 410 131v-227q-179 -115 -420 -115q-159 0 -298.5 55.5t-240.5 152.5t-159 236t-58 300z" />
<glyph unicode="&#x422;" horiz-adv-x="1308" d="M68 1227v207h1173v-207h-475v-1227h-225v1227h-473z" />
<glyph unicode="&#x423;" horiz-adv-x="1349" d="M41 1434h254l424 -777l352 777h242l-529 -1127q-157 -334 -411 -334q-133 0 -203 33v213q74 -35 164 -35q87 0 144 46.5t124 187.5z" />
<glyph unicode="&#x424;" horiz-adv-x="1882" d="M127 725q0 95 26 183t82 166.5t137 137.5t198 95t257 39v135h226v-135q174 -4 311.5 -57.5t221 -140.5t126.5 -194.5t43 -226.5q0 -95 -26.5 -182.5t-82.5 -165.5t-137.5 -136.5t-198.5 -94.5t-257 -39v-158h-226v158q-140 3 -257 39t-198 94t-137 136t-82 165.5 t-26 181.5zM358 727q0 -85 28 -158.5t83 -132.5t147 -93.5t211 -35.5v840q-119 -1 -211 -35.5t-147 -93.5t-83 -132.5t-28 -158.5zM1053 307q120 1 212.5 35.5t147.5 93.5t83 132.5t28 158.5t-28 158.5t-83 132.5t-147.5 93.5t-212.5 35.5v-840z" />
<glyph unicode="&#x425;" horiz-adv-x="1468" d="M35 0l567 776l-477 658h266l346 -476l346 476h263l-480 -654l570 -780h-269l-434 596l-436 -596h-262z" />
<glyph unicode="&#x426;" horiz-adv-x="1603" d="M178 0v1434h225v-1227h705v1227h225v-1227h207v-514h-213v307h-1149z" />
<glyph unicode="&#x427;" horiz-adv-x="1415" d="M127 991v443h225v-398q0 -159 78.5 -223.5t247.5 -64.5q186 0 334 71v615h225v-1434h-225v600q-176 -63 -369 -63q-516 0 -516 454z" />
<glyph unicode="&#x428;" horiz-adv-x="2101" d="M178 0v1434h225v-1227h535v1227h225v-1227h535v1227h225v-1434h-1745z" />
<glyph unicode="&#x429;" horiz-adv-x="2193" d="M178 0v1434h225v-1227h535v1227h225v-1227h535v1227h225v-1227h207v-514h-211v307h-1741z" />
<glyph unicode="&#x42a;" horiz-adv-x="1632" d="M39 1227v207h604v-496h371q249 0 392.5 -130.5t143.5 -340.5q0 -207 -143.5 -337t-392.5 -130h-596v1227h-379zM643 207h358q151 0 235.5 68.5t84.5 191.5q0 124 -84.5 194t-235.5 70h-358v-524z" />
<glyph unicode="&#x42b;" horiz-adv-x="1859" d="M178 0v1434h225v-496h322q249 0 393 -130.5t144 -340.5q0 -207 -144 -337t-393 -130h-547zM403 207h310q151 0 235 68.5t84 191.5q0 125 -84 194.5t-235 69.5h-310v-524zM1456 0v1434h225v-1434h-225z" />
<glyph unicode="&#x42c;" horiz-adv-x="1392" d="M178 0v1434h225v-496h371q249 0 393 -130.5t144 -340.5q0 -207 -144 -337t-393 -130h-596zM403 207h359q151 0 235 68.5t84 191.5q0 125 -84 194.5t-235 69.5h-359v-524z" />
<glyph unicode="&#x42d;" horiz-adv-x="1392" d="M98 86v231q86 -69 186 -101t230 -32q196 0 339 125t169 322h-612v207h600q-32 183 -168.5 297t-321.5 114q-218 0 -391 -114v227q176 98 387 98q210 0 382.5 -98t270 -268.5t97.5 -376.5q0 -154 -58 -292t-157.5 -237t-239 -157t-297.5 -58q-243 0 -416 113z" />
<glyph unicode="&#x42e;" horiz-adv-x="2142" d="M178 0v1434h225v-605h252q36 273 224.5 452t453.5 179q145 0 272 -58t217 -157t141.5 -236.5t51.5 -291.5q0 -206 -87.5 -376t-244.5 -269t-350 -99q-136 0 -256 49.5t-207.5 136t-144.5 206.5t-72 258h-250v-623h-225zM881 717q0 -240 128 -386.5t324 -146.5 q194 0 322.5 146.5t128.5 386.5t-128 386t-323 146q-196 0 -324 -146t-128 -386z" />
<glyph unicode="&#x42f;" horiz-adv-x="1503" d="M59 0l457 631q-151 35 -235 140.5t-84 254.5q0 184 127 296t348 112h653v-1434h-225v606h-336l-432 -606h-273zM424 1016q0 -99 69 -155t189 -56h418v422h-418q-120 0 -189 -56.5t-69 -154.5z" />
<glyph unicode="&#x430;" horiz-adv-x="1222" d="M74 311q0 159 116.5 246.5t286.5 87.5q182 0 322 -78v56q0 219 -295 219q-83 0 -170 -26t-148 -64v194q151 86 367 86q209 0 337 -100t128 -285v-375q0 -46 23.5 -73t60.5 -27q34 0 59 14v-168q-43 -32 -129 -32q-77 0 -133.5 35.5t-77.5 107.5q-60 -69 -153.5 -112.5 t-216.5 -43.5q-164 0 -270.5 90.5t-106.5 247.5zM295 324q0 -79 60.5 -119.5t156.5 -40.5q86 0 163.5 35t123.5 86v123q-127 71 -269 71q-109 0 -172 -41t-63 -114z" />
<glyph unicode="&#x431;" horiz-adv-x="1251" d="M100 635q0 98 13 180.5t36 150.5t61.5 124t83.5 100t108.5 81t129.5 64t153 51t173 41.5t195 34.5v-205q-264 -50 -323 -65q-213 -54 -309 -149q-104 -104 -118 -291q63 92 169.5 145t238.5 53q197 0 325.5 -126.5t128.5 -331.5q0 -151 -68.5 -270.5t-186 -184 t-261.5 -64.5q-175 0 -299.5 83.5t-187 231.5t-62.5 347zM317 557q8 -183 94 -286t238 -103q126 0 210.5 86t84.5 221q0 129 -81.5 207t-205.5 78q-107 0 -198.5 -59t-141.5 -144z" />
<glyph unicode="&#x432;" horiz-adv-x="1189" d="M158 0v1006h549q152 0 233.5 -72.5t81.5 -183.5q0 -76 -35.5 -133.5t-93.5 -84.5q91 -28 144 -93t53 -165q0 -126 -92.5 -200t-260.5 -74h-579zM379 178h319q78 0 122 32.5t44 90.5q0 60 -44 92.5t-122 32.5h-319v-248zM379 604h274q71 0 111.5 30t40.5 81 q0 112 -152 112h-274v-223z" />
<glyph unicode="&#x433;" horiz-adv-x="993" d="M158 0v1006h778v-195h-557v-811h-221z" />
<glyph unicode="&#x434;" horiz-adv-x="1357" d="M43 195h131q79 118 111 298.5t34 512.5h801v-811h174v-471h-209v276h-829v-276h-213v471zM408 195h491v616h-377q0 -396 -114 -616z" />
<glyph unicode="&#x435;" horiz-adv-x="1171" d="M86 504q0 225 143.5 376.5t372.5 151.5q94 0 173 -30.5t134.5 -82t94 -120.5t57 -145.5t18.5 -157.5v-58h-770q21 -127 123.5 -198.5t255.5 -71.5q175 0 324 90v-186q-62 -44 -160.5 -71.5t-210.5 -27.5q-153 0 -278.5 64.5t-201 187t-75.5 279.5zM311 606h545 q-2 92 -71 166t-193 74q-121 0 -196 -70.5t-85 -169.5z" />
<glyph unicode="&#x436;" horiz-adv-x="1669" d="M55 0l480 539l-422 467h260l352 -394v394h221v-394l352 394h261l-426 -467l483 -539h-275l-395 449v-449h-221v449l-397 -449h-273z" />
<glyph unicode="&#x437;" horiz-adv-x="1081" d="M113 45v201q175 -82 352 -82q131 0 207 38t76 107q0 127 -222 127h-186v178h186q99 0 144 30.5t45 80.5q0 60 -66.5 88.5t-177.5 28.5q-160 0 -330 -74v195q154 69 377 69q183 0 303.5 -75t120.5 -195q0 -165 -154 -221q86 -28 139.5 -88t53.5 -160q0 -141 -133 -230.5 t-352 -89.5q-233 0 -383 72z" />
<glyph unicode="&#x438;" horiz-adv-x="1286" d="M158 0v1006h221v-682l543 682h206v-1006h-221v684l-542 -684h-207z" />
<glyph unicode="&#x439;" horiz-adv-x="1286" d="M158 0v1006h221v-682l543 682h206v-1006h-221v684l-542 -684h-207zM289 1479h186q0 -74 45 -121t121 -47q74 0 120 47t48 121h188q-1 -155 -101 -246.5t-253 -91.5q-156 0 -254.5 91t-99.5 247z" />
<glyph unicode="&#x43a;" horiz-adv-x="1169" d="M158 0v1006h221v-381l397 381h283l-477 -451l548 -555h-303l-448 455v-455h-221z" />
<glyph unicode="&#x43b;" horiz-adv-x="1265" d="M43 4v191q24 -7 45 -7q108 0 153 114.5t50 375.5l6 328h811v-1006h-221v811h-379l-4 -145q-2 -77 -6.5 -138.5t-15.5 -133.5t-28.5 -126.5t-47.5 -107.5t-69 -87.5t-96.5 -55.5t-127.5 -21q-39 0 -70 8z" />
<glyph unicode="&#x43c;" horiz-adv-x="1439" d="M158 0v1006h217l344 -418l346 418h217v-1006h-213v705l-307 -371h-86l-305 371v-705h-213z" />
<glyph unicode="&#x43d;" horiz-adv-x="1267" d="M158 0v1006h221v-394h510v394h221v-1006h-221v418h-510v-418h-221z" />
<glyph unicode="&#x43e;" horiz-adv-x="1275" d="M86 504q0 108 40.5 204.5t112.5 168t176 113.5t224 42t223.5 -42t175 -113.5t112 -168t40.5 -204.5q0 -145 -69 -266t-196 -193t-286 -72q-120 0 -224 42t-176 114t-112.5 169.5t-40.5 205.5zM307 504q0 -143 95 -239.5t237 -96.5t236 96.5t94 239.5q0 141 -94.5 237.5 t-235.5 96.5q-142 0 -237 -97t-95 -237z" />
<glyph unicode="&#x43f;" horiz-adv-x="1253" d="M158 0v1006h938v-1006h-222v811h-495v-811h-221z" />
<glyph unicode="&#x440;" horiz-adv-x="1310" d="M158 -410v1416h221v-138q55 72 145.5 118t212.5 46q141 0 253.5 -72t173.5 -192.5t61 -265.5t-61 -265.5t-173.5 -192t-253.5 -71.5q-122 0 -212.5 46t-145.5 118v-547h-221zM379 346q41 -76 121 -127t178 -51q139 0 231 97t92 237q0 141 -92 238.5t-231 97.5 q-99 0 -179 -51t-120 -130v-311z" />
<glyph unicode="&#x441;" horiz-adv-x="1064" d="M86 506q0 153 75 274.5t198.5 186.5t271.5 65q171 0 303 -69v-191q-135 66 -270 66q-150 0 -253.5 -94t-103.5 -240t103.5 -241t253.5 -95q158 0 286 76v-189q-143 -82 -321 -82q-109 0 -208 39t-173.5 107.5t-118 169t-43.5 217.5z" />
<glyph unicode="&#x442;" horiz-adv-x="983" d="M41 811v195h899v-195h-338v-811h-221v811h-340z" />
<glyph unicode="&#x443;" horiz-adv-x="1169" d="M43 1006h246l303 -709l293 709h239l-481 -1115q-134 -311 -383 -311q-126 0 -182 33v194q65 -32 145 -32q85 0 144 63t116 199z" />
<glyph unicode="&#x444;" horiz-adv-x="1527" d="M86 504q0 224 149.5 363.5t417.5 154.5v412h221v-412q268 -15 418 -154.5t150 -363.5q0 -223 -151.5 -367t-416.5 -153v-394h-221v394q-265 9 -416 153t-151 367zM301 504q0 -150 98 -242t254 -92v666q-157 -2 -254.5 -92.5t-97.5 -239.5zM874 170q156 0 254.5 92 t98.5 242q0 149 -98 239.5t-255 92.5v-666z" />
<glyph unicode="&#x445;" horiz-adv-x="1183" d="M51 0l406 526l-365 480h256l238 -312l239 312h252l-364 -476l405 -530h-256l-280 367l-281 -367h-250z" />
<glyph unicode="&#x446;" horiz-adv-x="1335" d="M158 0v1006h221v-811h495v811h222v-811h176v-471h-215v276h-899z" />
<glyph unicode="&#x447;" horiz-adv-x="1169" d="M109 752v254h221v-236q0 -145 51.5 -203.5t181.5 -58.5q126 0 228 51v447h221v-1006h-221v362q-114 -47 -265 -47q-103 0 -178 22t-130 72.5t-82 135.5t-27 207z" />
<glyph unicode="&#x448;" horiz-adv-x="1728" d="M158 0v1006h221v-811h375v811h221v-811h375v811h221v-1006h-1413z" />
<glyph unicode="&#x449;" horiz-adv-x="1810" d="M158 0v1006h221v-811h375v811h221v-811h375v811h221v-811h176v-471h-215v276h-1374z" />
<glyph unicode="&#x44a;" horiz-adv-x="1327" d="M31 811v195h516v-306h289q185 0 295 -95.5t110 -254.5q0 -152 -104 -251t-291 -99h-520v811h-295zM547 186h264q97 0 152 43.5t55 120.5q0 78 -55 121t-152 43h-264v-328z" />
<glyph unicode="&#x44b;" horiz-adv-x="1548" d="M158 0v1006h221v-306h244q185 0 295 -95.5t110 -254.5q0 -152 -104 -251t-291 -99h-475zM379 186h219q97 0 152 43.5t55 120.5q0 78 -55 121t-152 43h-219v-328zM1169 0v1006h222v-1006h-222z" />
<glyph unicode="&#x44c;" horiz-adv-x="1159" d="M158 0v1006h221v-306h289q185 0 295 -95.5t110 -254.5q0 -152 -104 -251t-291 -99h-520zM379 186h264q97 0 152 43.5t55 120.5q0 78 -55 121t-152 43h-264v-328z" />
<glyph unicode="&#x44d;" horiz-adv-x="1056" d="M111 53v193q135 -78 284 -78q136 0 233 68t115 182h-424v178h424q-25 113 -119 177.5t-229 64.5q-141 0 -264 -66v193q131 67 299 67q147 0 270 -65t197 -186.5t74 -274.5q0 -117 -43.5 -217.5t-117 -169t-172.5 -107.5t-208 -39q-179 0 -319 80z" />
<glyph unicode="&#x44e;" horiz-adv-x="1683" d="M158 0v1006h221v-396h205q31 184 168 303t331 119q223 0 368.5 -152t145.5 -376q0 -148 -64.5 -269t-183 -191.5t-266.5 -70.5q-202 0 -339 124.5t-164 318.5h-201v-416h-221zM786 504q0 -142 83 -239t214 -97t213 97t82 239q0 141 -82 237.5t-213 96.5t-214 -96.5 t-83 -237.5z" />
<glyph unicode="&#x44f;" horiz-adv-x="1198" d="M72 0l284 391q-107 28 -165 105t-58 192q0 138 95.5 228t283.5 90h528v-1006h-221v346h-244l-249 -346h-254zM358 676q0 -72 48.5 -112t136.5 -40h276v303h-276q-87 0 -136 -40t-49 -111z" />
<glyph unicode="&#x451;" horiz-adv-x="1171" d="M86 504q0 225 143.5 376.5t372.5 151.5q94 0 173 -30.5t134.5 -82t94 -120.5t57 -145.5t18.5 -157.5v-58h-770q21 -127 123.5 -198.5t255.5 -71.5q175 0 324 90v-186q-62 -44 -160.5 -71.5t-210.5 -27.5q-153 0 -278.5 64.5t-201 187t-75.5 279.5zM258 1303 q0 51 36.5 86.5t88.5 35.5q51 0 86 -35.5t35 -86.5t-35 -87t-86 -36q-52 0 -88.5 36t-36.5 87zM311 606h545q-2 92 -71 166t-193 74q-121 0 -196 -70.5t-85 -169.5zM682 1303q0 51 37 86.5t88 35.5t86 -35.5t35 -86.5t-35 -87t-86 -36t-88 36t-37 87z" />
<glyph unicode="&#x452;" horiz-adv-x="1339" d="M31 1100v178h209v156h221v-156h309v-178h-309v-334q148 160 368 160q179 0 276 -111.5t97 -306.5v-580q0 -171 -91 -259.5t-243 -88.5q-52 0 -110 11t-90 30v193q66 -39 147 -39q80 0 123 45t43 133v506q0 77 -22 131.5t-59.5 80.5t-74.5 37t-80 11q-84 0 -162.5 -47.5 t-121.5 -116.5v-555h-221v1100h-209z" />
<glyph unicode="&#x453;" horiz-adv-x="993" d="M158 0v1006h778v-195h-557v-811h-221zM373 1178l194 286h277l-271 -286h-200z" />
<glyph unicode="&#x454;" horiz-adv-x="1060" d="M86 506q0 153 74 274.5t197 186.5t270 65q168 0 299 -67v-193q-123 66 -264 66q-135 0 -230 -64.5t-119 -177.5h424v-178h-424q18 -114 115.5 -182t233.5 -68q149 0 284 78v-193q-140 -80 -319 -80q-109 0 -208 39t-172.5 107.5t-117 169t-43.5 217.5z" />
<glyph unicode="&#x455;" horiz-adv-x="1048" d="M96 76v209q69 -47 177 -84t233 -37q104 0 162.5 32t58.5 87q0 19 -6.5 34t-22.5 26.5t-32 19.5t-45 16.5t-51.5 14t-61 14.5t-64.5 16q-173 43 -255.5 112t-82.5 201q0 136 112.5 215.5t313.5 79.5q102 0 204 -24t167 -66v-203q-182 103 -362 103q-103 0 -155 -30.5 t-52 -80.5q0 -18 7 -33t24 -26.5t33 -20t45.5 -16.5t50 -13t58 -13t58.5 -13q163 -37 253.5 -111.5t90.5 -205.5q0 -138 -121 -222t-317 -84q-126 0 -240 29t-180 74z" />
<glyph unicode="&#x456;" horiz-adv-x="573" d="M147 1325q0 60 40 100.5t100 40.5q58 0 97.5 -40.5t39.5 -100.5q0 -59 -39.5 -99t-97.5 -40q-60 0 -100 40t-40 99zM176 0v1006h221v-1006h-221z" />
<glyph unicode="&#x457;" horiz-adv-x="575" d="M-47 1327q0 51 36.5 87t88.5 36q51 0 86 -36t35 -87t-35 -87t-86 -36q-52 0 -88.5 36t-36.5 87zM176 0v1006h223v-1006h-223zM377 1327q0 51 37 87t88 36t86 -36t35 -87t-35 -87t-86 -36t-88 36t-37 87z" />
<glyph unicode="&#x458;" horiz-adv-x="573" d="M-137 -186v-193q32 -19 89.5 -30t110.5 -11q152 0 243 88.5t91 259.5v1078h-221v-1053q0 -88 -43 -133t-123 -45q-81 0 -147 39zM145 1325q0 60 40.5 100.5t99.5 40.5t99 -40.5t40 -100.5q0 -59 -40 -99t-99 -40t-99.5 40.5t-40.5 98.5z" />
<glyph unicode="&#x459;" horiz-adv-x="1843" d="M43 4v191q24 -7 45 -7q108 0 153 114.5t50 375.5l6 328h793v-306h262q185 0 295 -95.5t110 -254.5q0 -152 -104 -251t-291 -99h-494v811h-360l-4 -145q-2 -77 -6.5 -138.5t-15.5 -133.5t-28.5 -126.5t-47.5 -107.5t-69 -87.5t-96.5 -55.5t-127.5 -21q-39 0 -70 8z M1090 186h237q97 0 152 43.5t55 120.5q0 78 -55 121t-152 43h-237v-328z" />
<glyph unicode="&#x45a;" horiz-adv-x="1835" d="M158 0v1006h221v-394h481v394h221v-306h262q185 0 295.5 -95.5t110.5 -254.5q0 -152 -104 -251t-291 -99h-494v418h-481v-418h-221zM1081 186h238q97 0 152 43.5t55 120.5q0 78 -55 121t-152 43h-238v-328z" />
<glyph unicode="&#x45b;" horiz-adv-x="1339" d="M31 1100v178h209v156h221v-156h309v-178h-309v-334q148 160 368 160q179 0 276 -111.5t97 -306.5v-508h-221v459q0 77 -22 131.5t-59.5 80.5t-74.5 37t-80 11q-84 0 -162.5 -47.5t-121.5 -116.5v-555h-221v1100h-209z" />
<glyph unicode="&#x45c;" horiz-adv-x="1169" d="M158 0v1006h221v-381l397 381h283l-477 -451l548 -555h-303l-448 455v-455h-221zM463 1178l194 286h277l-270 -286h-201z" />
<glyph unicode="&#x45e;" horiz-adv-x="1169" d="M43 1006h246l303 -709l293 709h239l-481 -1115q-134 -311 -383 -311q-126 0 -182 33v194q65 -32 145 -32q85 0 144 63t116 199zM238 1479h186q0 -74 45 -121t121 -47q74 0 120 47t48 121h188q-1 -155 -101 -246.5t-253 -91.5q-156 0 -254.5 91t-99.5 247z" />
<glyph unicode="&#x45f;" horiz-adv-x="1253" d="M158 0v1006h221v-811h495v811h222v-1006h-363v-276h-215v276h-360z" />
<glyph unicode="&#x490;" horiz-adv-x="1255" d="M178 0v1434h799v290h205v-497h-779v-1227h-225z" />
<glyph unicode="&#x491;" horiz-adv-x="993" d="M158 0v1006h573v262h205v-457h-557v-811h-221z" />
<glyph unicode="&#x2000;" horiz-adv-x="954" />
<glyph unicode="&#x2001;" horiz-adv-x="1909" />
<glyph unicode="&#x2002;" horiz-adv-x="954" />
<glyph unicode="&#x2003;" horiz-adv-x="1909" />
<glyph unicode="&#x2004;" horiz-adv-x="636" />
<glyph unicode="&#x2005;" horiz-adv-x="477" />
<glyph unicode="&#x2006;" horiz-adv-x="318" />
<glyph unicode="&#x2007;" horiz-adv-x="318" />
<glyph unicode="&#x2008;" horiz-adv-x="238" />
<glyph unicode="&#x2009;" horiz-adv-x="381" />
<glyph unicode="&#x200a;" horiz-adv-x="106" />
<glyph unicode="&#x2010;" horiz-adv-x="1005" d="M201 465v199h604v-199h-604z" />
<glyph unicode="&#x2011;" horiz-adv-x="1005" d="M201 465v199h604v-199h-604z" />
<glyph unicode="&#x2012;" horiz-adv-x="1005" d="M201 465v199h604v-199h-604z" />
<glyph unicode="&#x2013;" horiz-adv-x="1538" d="M201 465v199h1136v-199h-1136z" />
<glyph unicode="&#x2014;" horiz-adv-x="1867" d="M201 465v199h1466v-199h-1466z" />
<glyph unicode="&#x2018;" horiz-adv-x="479" d="M14 860l250 574h174l-170 -574h-254z" />
<glyph unicode="&#x2019;" horiz-adv-x="479" d="M29 860l170 574h254l-250 -574h-174z" />
<glyph unicode="&#x201a;" horiz-adv-x="520" d="M16 -311l170 573h254l-250 -573h-174z" />
<glyph unicode="&#x201c;" horiz-adv-x="860" d="M14 860l250 574h174l-170 -574h-254zM395 860l250 574h174l-170 -574h-254z" />
<glyph unicode="&#x201d;" horiz-adv-x="860" d="M29 860l170 574h254l-250 -574h-174zM410 860l170 574h254l-250 -574h-174z" />
<glyph unicode="&#x201e;" horiz-adv-x="901" d="M16 -311l170 573h254l-250 -573h-174zM397 -311l170 573h254l-250 -573h-174z" />
<glyph unicode="&#x2020;" horiz-adv-x="1046" d="M84 823v183h344v428h188v-428h347v-183h-347v-823h-188v823h-344z" />
<glyph unicode="&#x2021;" horiz-adv-x="1046" d="M82 373v182h346v268h-344v183h344v428h188v-428h347v-183h-347v-268h345v-182h-345v-373h-188v373h-346z" />
<glyph unicode="&#x2022;" horiz-adv-x="843" d="M156 788q0 111 78 190t188 79q109 0 187.5 -79.5t78.5 -189.5q0 -107 -78.5 -185.5t-187.5 -78.5q-110 0 -188 78t-78 186z" />
<glyph unicode="&#x2026;" horiz-adv-x="1456" d="M113 129q0 59 42 101t103 42q58 0 100.5 -42t42.5 -101q0 -61 -42 -103t-101 -42q-62 0 -103.5 42t-41.5 103zM586 129q0 59 41.5 101t101.5 42t101.5 -42t41.5 -101q0 -61 -41.5 -103t-101.5 -42t-101.5 42t-41.5 103zM1059 129q0 59 41.5 101t101.5 42t102 -42t42 -101 q0 -61 -42 -103t-102 -42t-101.5 42t-41.5 103z" />
<glyph unicode="&#x202f;" horiz-adv-x="381" />
<glyph unicode="&#x2030;" horiz-adv-x="2471" d="M74 1112q0 147 99.5 247.5t250.5 100.5q154 0 254 -100t100 -248t-100 -247t-254 -99q-151 0 -250.5 99.5t-99.5 246.5zM236 1112q0 -84 53 -140.5t135 -56.5q85 0 138.5 56.5t53.5 140.5q0 86 -53.5 141.5t-138.5 55.5q-83 0 -135.5 -56t-52.5 -141zM330 0l848 1434h170 l-846 -1434h-172zM899 322q0 146 99.5 246t250.5 100q154 0 254.5 -100t100.5 -246q0 -148 -100.5 -248.5t-254.5 -100.5q-151 0 -250.5 100.5t-99.5 248.5zM1061 322q0 -85 52.5 -141t135.5 -56q85 0 139 55.5t54 141.5q0 84 -54 140t-139 56q-82 0 -135 -56t-53 -140z M1696 322q0 146 99.5 246t250.5 100q154 0 254 -100t100 -246q0 -149 -100 -249t-254 -100q-151 0 -250.5 100t-99.5 249zM1855 322q0 -85 54 -142t137 -57q85 0 138.5 56.5t53.5 142.5q0 84 -53.5 140t-138.5 56q-83 0 -137 -56t-54 -140z" />
<glyph unicode="&#x2039;" horiz-adv-x="663" d="M72 446v113l295 371h225l-334 -426l334 -426h-225z" />
<glyph unicode="&#x203a;" horiz-adv-x="661" d="M72 78l329 426l-329 426h223l295 -371v-113l-295 -368h-223z" />
<glyph unicode="&#x2044;" horiz-adv-x="430" d="M-301 0l856 1434h186l-856 -1434h-186z" />
<glyph unicode="&#x205f;" horiz-adv-x="477" />
<glyph unicode="&#x20ac;" horiz-adv-x="1378" d="M74 494v159h153q-2 25 -2 76q0 32 4 94h-155v160h188q64 214 233 345.5t412 131.5q197 0 342 -88v-215q-145 96 -315 96q-151 0 -262.5 -70.5t-163.5 -199.5h444v-160h-491q-6 -50 -6 -90q0 -34 4 -80h493v-159h-456q43 -147 158.5 -230.5t279.5 -83.5q201 0 346 119 v-225q-144 -101 -373 -101q-255 0 -426.5 143t-228.5 378h-178z" />
<glyph unicode="&#x2122;" horiz-adv-x="1411" d="M43 1323v111h530v-111h-204v-524h-127v524h-199zM680 799v635h117l192 -260l191 260h120v-635h-126v438l-152 -197h-64l-153 199v-440h-125z" />
<glyph unicode="&#x2202;" horiz-adv-x="1273" d="M86 428q0 142 61 262t171 191t245 71q245 0 373 -186q0 70 -14 138.5t-44.5 134t-75 114.5t-111 79t-146.5 30q-155 0 -289 -80v184q138 88 313 88q262 0 420 -197.5t158 -523.5q0 -114 -19.5 -219.5t-64.5 -205t-111.5 -173t-168.5 -118t-228 -44.5q-205 0 -337 123.5 t-132 331.5zM299 449q0 -125 76.5 -203t197.5 -78q140 0 233 98t116 264q-41 101 -127 164.5t-191 63.5q-128 0 -216.5 -85.5t-88.5 -223.5z" />
<glyph unicode="&#x2206;" horiz-adv-x="1560" d="M45 0l627 1434h217l627 -1434h-1471zM369 207h819l-410 944z" />
<glyph unicode="&#x220f;" horiz-adv-x="1572" d="M100 1253v181h1373v-181h-240v-1521h-203v1521h-487v-1521h-203v1521h-240z" />
<glyph unicode="&#x2211;" horiz-adv-x="1259" d="M104 0v160l494 557l-483 557v160h1044v-207h-719l391 -463v-92l-405 -465h745v-207h-1067z" />
<glyph unicode="&#x221a;" horiz-adv-x="1443" d="M0 825v181h412l336 -756l462 1184h201l-571 -1434h-187l-370 825h-283z" />
<glyph unicode="&#x221e;" horiz-adv-x="1642" d="M92 631q0 109 53 193.5t134 126.5t174 42q205 0 368 -231q161 231 371 231q156 0 256 -105t100 -257q0 -160 -100.5 -263.5t-255.5 -103.5q-106 0 -201.5 62t-171.5 168q-163 -230 -368 -230q-93 0 -173.5 41.5t-133 127t-52.5 198.5zM270 631q0 -81 53 -144t146 -63 q79 0 142 56.5t122 148.5q-31 46 -54.5 75.5t-58 63t-73 50t-80.5 16.5q-91 0 -144 -62t-53 -141zM909 629q57 -92 121.5 -148.5t145.5 -56.5q93 0 144.5 62.5t51.5 144.5q0 81 -51.5 140.5t-146.5 59.5q-80 0 -141 -52t-124 -150z" />
<glyph unicode="&#x222b;" horiz-adv-x="1067" d="M-135 -197q73 -28 143 -28q103 0 167.5 69t86.5 201l158 999q14 90 45.5 162t82.5 129t127.5 88t172.5 31q110 0 188 -37v-186q-68 29 -145 29q-105 0 -168 -62.5t-84 -200.5l-160 -1007q-11 -68 -32.5 -127t-57.5 -111.5t-83 -90t-112.5 -59.5t-142.5 -22 q-109 0 -186 39v184z" />
<glyph unicode="&#x2248;" horiz-adv-x="1351" d="M139 279v200q31 39 102 64.5t152 25.5q70 0 147 -18t134.5 -40t134.5 -40t147 -18q161 0 256 98v-201q-33 -39 -103.5 -64.5t-152.5 -25.5q-70 0 -148 18.5t-136.5 40t-134.5 40t-144 18.5q-159 0 -254 -98zM139 750v200q31 39 102 64.5t152 25.5q70 0 147 -18t134.5 -40 t134.5 -40t147 -18q161 0 256 98v-203q-33 -39 -103.5 -63.5t-152.5 -24.5q-70 0 -148 18t-136.5 39.5t-134.5 39.5t-144 18q-161 0 -254 -96z" />
<glyph unicode="&#x2260;" horiz-adv-x="1292" d="M139 340v199h340l139 268h-479v199h584l115 219h198l-114 -219h231v-199h-336l-139 -268h475v-199h-580l-120 -231h-199l121 231h-236z" />
<glyph unicode="&#x2264;" horiz-adv-x="1292" d="M139 74v196h1012v-196h-1012zM139 737v191l1014 383v-221l-782 -256l782 -259v-221z" />
<glyph unicode="&#x2265;" horiz-adv-x="1292" d="M139 74v196h1014v-196h-1014zM139 354v221l783 259l-783 256v221l1014 -383v-191z" />
<glyph unicode="&#x25ca;" horiz-adv-x="1155" d="M84 717l399 717h189l399 -717l-399 -717h-189zM291 717q76 -136 289 -527l288 527l-288 526z" />
<glyph unicode="&#x25fc;" horiz-adv-x="1003" d="M0 0v1004h1004v-1004h-1004z" />
</font>
</defs>
</svg>
