<svg id="SvgjsSvg1029" width="100%" height="80" xmlns="http://www.w3.org/2000/svg" version="1.1" xlink="http://www.w3.org/1999/xlink" xmlns:svgjs="http://svgjs.com/svgjs" preserveAspectRatio="xMidYMid meet" viewBox="0 2.7679968184202153e-7 183.44677734375 147" overflow="visible"><defs id="SvgjsDefs1030"></defs><g id="SvgjsG1031" transform="scale(0.5804910094631809)" opacity="1"><g id="SvgjsG1032" class="pB7J430TD" transform="translate(39.50131556414328, -23.701736366376018) scale(2.3701736887171343)" light-content="false" non-strokable="false" fill="#050505"><path d="M16.667 43.33C16.667 69.104 37.559 90 63.333 90v-6.667c-22.093 0-40-17.91-40-40.003h-6.666z"></path><path d="M63.333 16.667c-14.729 0-26.666 11.94-26.666 26.664C36.667 58.06 48.604 70 63.333 70v6.667C44.922 76.667 30 61.741 30 43.33 30 24.922 44.922 10 63.333 10v6.667z"></path><path d="M63.333 43.333v20c-11.048 0-20-8.955-20-20.003 0-11.045 8.952-19.997 20-19.997 11.049 0 20 8.952 20 19.997l-20 .003z"></path></g><g id="SvgjsG1033" class="text" transform="translate(158.30999755859375, 252.81389690190085) scale(1)" light-content="false" fill="#050505"><path d="M-158.25 -5.28L-158.25 -0.6C-157.73 -0.52 -156.9 -0.38 -155.76 -0.18C-154.62 0.02 -153.62 0.17 -152.76 0.27C-151.9 0.37 -150.86 0.42 -149.64 0.42C-148.42 0.42 -147.24 0.19 -146.1 -0.27C-144.96 -0.73 -144.11 -1.26 -143.55 -1.86C-142.99 -2.46 -142.56 -3.34 -142.26 -4.5C-141.96 -5.66 -141.79 -6.6 -141.75 -7.32C-141.71 -8.04 -141.69 -9.1 -141.69 -10.5C-141.69 -11.9 -142.27 -13.31 -143.43 -14.73C-144.59 -16.15 -145.88 -17.34 -147.3 -18.3C-148.72 -19.26 -150.01 -20.26 -151.17 -21.3C-152.33 -22.34 -152.91 -23.32 -152.91 -24.24C-152.91 -25.16 -152.77 -25.9 -152.49 -26.46C-152.13 -27.18 -151.13 -27.54 -149.49 -27.54L-147.15 -27.12C-146.31 -27 -145.58 -26.94 -144.96 -26.94C-144.34 -26.94 -143.88 -27.07 -143.58 -27.33C-143.28 -27.59 -142.97 -28.88 -142.65 -31.2L-149.67 -32.64C-152.63 -32.64 -154.89 -32.06 -156.45 -30.9C-157.01 -30.46 -157.44 -29.77 -157.74 -28.83C-158.04 -27.89 -158.21 -27.1 -158.25 -26.46C-158.29 -25.82 -158.31 -24.84 -158.31 -23.52C-158.31 -22.2 -157.74 -20.79 -156.6 -19.29C-155.46 -17.79 -154.21 -16.54 -152.85 -15.54C-149.25 -12.82 -147.45 -10.98 -147.45 -10.02C-147.45 -8.74 -147.51 -7.68 -147.63 -6.84C-147.71 -6.24 -147.84 -5.83 -148.02 -5.61C-148.2 -5.39 -148.47 -5.18 -148.83 -4.98C-149.19 -4.78 -149.95 -4.68 -151.11 -4.68C-152.27 -4.68 -154.65 -4.88 -158.25 -5.28Z M-125.55 -24.78L-125.55 -23.34L-125.07 -21.9C-132.95 -21.74 -136.89 -19.4 -136.89 -14.88L-136.89 -10.74C-136.89 -6.9 -136.79 -4.36 -136.59 -3.12C-136.43 -2.08 -136.26 -1.4 -136.08 -1.08C-135.9 -0.76 -135.54 -0.44 -135 -0.12C-134.46 0.2 -133.92 0.37 -133.38 0.39C-132.84 0.41 -132.01 0.42 -130.89 0.42L-125.91 -2.1C-125.87 -1.18 -125.55 -0.6 -124.95 -0.36C-124.35 -0.12 -122.89 0 -120.57 0L-120.57 -24.36C-120.57 -26.6 -120.67 -28.24 -120.87 -29.28C-120.99 -30.12 -121.21 -30.68 -121.53 -30.96C-121.85 -31.24 -122.37 -31.59 -123.09 -32.01C-123.81 -32.43 -125.59 -32.64 -128.43 -32.64L-135.39 -31.26C-135.07 -28.98 -134.75 -27.7 -134.43 -27.42C-134.11 -27.14 -133.65 -27 -133.05 -27C-132.45 -27 -131.73 -27.06 -130.89 -27.18L-127.65 -27.6C-127.29 -27.56 -126.98 -27.58 -126.72 -27.66C-126.46 -27.74 -126.25 -27.71 -126.09 -27.57C-125.93 -27.43 -125.79 -27.34 -125.67 -27.3C-125.55 -27.26 -125.49 -26.96 -125.49 -26.4ZM-131.25 -4.68C-131.45 -4.68 -131.55 -5.68 -131.55 -7.68L-131.49 -15.6C-131.49 -16.08 -130.87 -16.46 -129.63 -16.74C-128.39 -17.02 -126.95 -17.18 -125.31 -17.22L-125.79 -15.84L-125.79 -8.7L-125.19 -6.96C-129.19 -5.44 -131.21 -4.68 -131.25 -4.68Z M-115.17 -16.02C-115.17 -13.06 -115.15 -10.92 -115.11 -9.6C-114.91 -5.4 -114.27 -2.8 -113.19 -1.8C-111.55 -0.32 -109.15 0.42 -105.99 0.42L-102.33 -2.04C-102.29 -1.08 -101.99 -0.5 -101.43 -0.3C-100.87 -0.1 -99.39 0 -96.99 0L-96.99 -39.54C-96.99 -41.38 -97.21 -42.45 -97.65 -42.75C-98.09 -43.05 -99.65 -43.2 -102.33 -43.2L-102.33 -31.44L-105.69 -32.64C-109.01 -32.64 -111.47 -31.88 -113.07 -30.36C-113.75 -29.72 -114.24 -28.57 -114.54 -26.91C-114.84 -25.25 -115.02 -23.76 -115.08 -22.44C-115.14 -21.12 -115.17 -18.98 -115.17 -16.02ZM-101.73 -6.66L-106.41 -4.68C-107.89 -4.72 -108.85 -5.48 -109.29 -6.96C-109.65 -8.16 -109.83 -11.08 -109.83 -15.72C-109.83 -20.36 -109.65 -23.46 -109.29 -25.02C-108.93 -26.58 -107.99 -27.42 -106.47 -27.54L-101.79 -26.34L-102.33 -24.66L-102.33 -8.58Z M-90.99 -15.96C-90.99 -13.36 -90.93 -10.92 -90.81 -8.64C-90.77 -7.28 -90.67 -6.3 -90.51 -5.7C-90.35 -5.1 -90.12 -4.37 -89.82 -3.51C-89.52 -2.65 -89.15 -2.04 -88.71 -1.68C-88.27 -1.32 -87.72 -0.94 -87.06 -0.54C-86.4 -0.14 -85.64 0.12 -84.78 0.24C-83.92 0.36 -82.69 0.42 -81.09 0.42C-79.49 0.42 -78.21 0.2 -77.25 -0.24C-76.65 -0.48 -76.12 -0.71 -75.66 -0.93C-75.2 -1.15 -74.8 -1.53 -74.46 -2.07C-74.12 -2.61 -73.84 -3.07 -73.62 -3.45C-73.4 -3.83 -73.21 -4.44 -73.05 -5.28C-72.89 -6.12 -72.75 -6.96 -72.63 -7.8C-72.51 -8.64 -72.45 -10.34 -72.45 -12.9L-72.45 -17.4C-72.45 -19.6 -72.48 -21.34 -72.54 -22.62C-72.6 -23.9 -72.77 -25.37 -73.05 -27.03C-73.33 -28.69 -73.8 -29.81 -74.46 -30.39C-75.12 -30.97 -76.04 -31.49 -77.22 -31.95C-78.4 -32.41 -79.95 -32.64 -81.87 -32.64C-83.79 -32.64 -85.25 -32.44 -86.25 -32.04C-86.85 -31.8 -87.37 -31.58 -87.81 -31.38C-88.25 -31.18 -88.64 -30.82 -88.98 -30.3C-89.32 -29.78 -89.6 -29.33 -89.82 -28.95C-90.04 -28.57 -90.23 -27.97 -90.39 -27.15C-90.55 -26.33 -90.69 -25.5 -90.81 -24.66C-90.93 -23.82 -90.99 -22.16 -90.99 -19.68ZM-81.75 -27.54C-80.79 -27.54 -80.04 -27.37 -79.5 -27.03C-78.96 -26.69 -78.57 -25.96 -78.33 -24.84C-78.09 -23.72 -77.95 -22.64 -77.91 -21.6C-77.87 -20.56 -77.85 -18.24 -77.85 -14.64C-77.85 -11.04 -78.05 -8.48 -78.45 -6.96C-78.85 -5.44 -79.95 -4.68 -81.75 -4.68C-82.71 -4.68 -83.46 -4.85 -84 -5.19C-84.54 -5.53 -84.93 -6.29 -85.17 -7.47C-85.41 -8.65 -85.55 -9.77 -85.59 -10.83C-85.63 -11.89 -85.65 -14.21 -85.65 -17.79C-85.65 -21.37 -85.45 -23.89 -85.05 -25.35C-84.65 -26.81 -83.55 -27.54 -81.75 -27.54Z M-49.35 -31.56C-49.71 -32 -51.25 -32.22 -53.97 -32.22L-58.41 -7.14L-58.59 -7.14L-62.61 -28.8C-62.85 -29.92 -63.1 -30.68 -63.36 -31.08C-63.62 -31.48 -64.11 -31.77 -64.83 -31.95C-65.55 -32.13 -66.79 -32.22 -68.55 -32.22L-61.95 0L-55.29 0L-49.53 -28.32C-49.29 -29.44 -49.15 -30.16 -49.11 -30.48C-49.07 -30.56 -49.05 -30.7 -49.05 -30.9C-49.05 -31.1 -49.15 -31.32 -49.35 -31.56Z M-45.15 -15.96C-45.15 -13.36 -45.09 -10.92 -44.97 -8.64C-44.93 -7.28 -44.83 -6.3 -44.67 -5.7C-44.51 -5.1 -44.28 -4.37 -43.98 -3.51C-43.68 -2.65 -43.31 -2.04 -42.87 -1.68C-42.43 -1.32 -41.88 -0.94 -41.22 -0.54C-40.56 -0.14 -39.8 0.12 -38.94 0.24C-38.08 0.36 -36.85 0.42 -35.25 0.42C-33.65 0.42 -32.37 0.2 -31.41 -0.24C-30.81 -0.48 -30.28 -0.71 -29.82 -0.93C-29.36 -1.15 -28.96 -1.53 -28.62 -2.07C-28.28 -2.61 -28 -3.07 -27.78 -3.45C-27.56 -3.83 -27.37 -4.44 -27.21 -5.28C-27.05 -6.12 -26.91 -6.96 -26.79 -7.8C-26.67 -8.64 -26.61 -10.34 -26.61 -12.9L-26.61 -17.4C-26.61 -19.6 -26.64 -21.34 -26.7 -22.62C-26.76 -23.9 -26.93 -25.37 -27.21 -27.03C-27.49 -28.69 -27.96 -29.81 -28.62 -30.39C-29.28 -30.97 -30.2 -31.49 -31.38 -31.95C-32.56 -32.41 -34.11 -32.64 -36.03 -32.64C-37.95 -32.64 -39.41 -32.44 -40.41 -32.04C-41.01 -31.8 -41.53 -31.58 -41.97 -31.38C-42.41 -31.18 -42.8 -30.82 -43.14 -30.3C-43.48 -29.78 -43.76 -29.33 -43.98 -28.95C-44.2 -28.57 -44.39 -27.97 -44.55 -27.15C-44.71 -26.33 -44.85 -25.5 -44.97 -24.66C-45.09 -23.82 -45.15 -22.16 -45.15 -19.68ZM-35.91 -27.54C-34.95 -27.54 -34.2 -27.37 -33.66 -27.03C-33.12 -26.69 -32.73 -25.96 -32.49 -24.84C-32.25 -23.72 -32.11 -22.64 -32.07 -21.6C-32.03 -20.56 -32.01 -18.24 -32.01 -14.64C-32.01 -11.04 -32.21 -8.48 -32.61 -6.96C-33.01 -5.44 -34.11 -4.68 -35.91 -4.68C-36.87 -4.68 -37.62 -4.85 -38.16 -5.19C-38.7 -5.53 -39.09 -6.29 -39.33 -7.47C-39.57 -8.65 -39.71 -9.77 -39.75 -10.83C-39.79 -11.89 -39.81 -14.21 -39.81 -17.79C-39.81 -21.37 -39.61 -23.89 -39.21 -25.35C-38.81 -26.81 -37.71 -27.54 -35.91 -27.54Z M-21.21 -16.02C-21.21 -13.06 -21.19 -10.92 -21.15 -9.6C-20.95 -5.4 -20.31 -2.8 -19.23 -1.8C-17.59 -0.32 -15.19 0.42 -12.03 0.42L-8.37 -2.04C-8.33 -1.08 -8.03 -0.5 -7.47 -0.3C-6.91 -0.1 -5.43 0 -3.03 0L-3.03 -39.54C-3.03 -41.38 -3.25 -42.45 -3.69 -42.75C-4.13 -43.05 -5.69 -43.2 -8.37 -43.2L-8.37 -31.44L-11.73 -32.64C-15.05 -32.64 -17.51 -31.88 -19.11 -30.36C-19.79 -29.72 -20.28 -28.57 -20.58 -26.91C-20.88 -25.25 -21.06 -23.76 -21.12 -22.44C-21.18 -21.12 -21.21 -18.98 -21.21 -16.02ZM-7.77 -6.66L-12.45 -4.68C-13.93 -4.72 -14.89 -5.48 -15.33 -6.96C-15.69 -8.16 -15.87 -11.08 -15.87 -15.72C-15.87 -20.36 -15.69 -23.46 -15.33 -25.02C-14.97 -26.58 -14.03 -27.42 -12.51 -27.54L-7.83 -26.34L-8.37 -24.66L-8.37 -8.58Z M2.97 -21.78L2.97 -16.86L17.07 -16.86L17.07 -21.78Z M21.99 -5.28L21.99 -0.6C22.51 -0.52 23.34 -0.38 24.48 -0.18C25.62 0.02 26.62 0.17 27.48 0.27C28.34 0.37 29.38 0.42 30.6 0.42C31.82 0.42 33 0.19 34.14 -0.27C35.28 -0.73 36.13 -1.26 36.69 -1.86C37.25 -2.46 37.68 -3.34 37.98 -4.5C38.28 -5.66 38.45 -6.6 38.49 -7.32C38.53 -8.04 38.55 -9.1 38.55 -10.5C38.55 -11.9 37.97 -13.31 36.81 -14.73C35.65 -16.15 34.36 -17.34 32.94 -18.3C31.52 -19.26 30.23 -20.26 29.07 -21.3C27.91 -22.34 27.33 -23.32 27.33 -24.24C27.33 -25.16 27.47 -25.9 27.75 -26.46C28.11 -27.18 29.11 -27.54 30.75 -27.54L33.09 -27.12C33.93 -27 34.66 -26.94 35.28 -26.94C35.9 -26.94 36.36 -27.07 36.66 -27.33C36.96 -27.59 37.27 -28.88 37.59 -31.2L30.57 -32.64C27.61 -32.64 25.35 -32.06 23.79 -30.9C23.23 -30.46 22.8 -29.77 22.5 -28.83C22.2 -27.89 22.03 -27.1 21.99 -26.46C21.95 -25.82 21.93 -24.84 21.93 -23.52C21.93 -22.2 22.5 -20.79 23.64 -19.29C24.78 -17.79 26.03 -16.54 27.39 -15.54C30.99 -12.82 32.79 -10.98 32.79 -10.02C32.79 -8.74 32.73 -7.68 32.61 -6.84C32.53 -6.24 32.4 -5.83 32.22 -5.61C32.04 -5.39 31.77 -5.18 31.41 -4.98C31.05 -4.78 30.29 -4.68 29.13 -4.68C27.97 -4.68 25.59 -4.88 21.99 -5.28Z M54.69 -24.78L54.69 -23.34L55.17 -21.9C47.29 -21.74 43.35 -19.4 43.35 -14.88L43.35 -10.74C43.35 -6.9 43.45 -4.36 43.65 -3.12C43.81 -2.08 43.98 -1.4 44.16 -1.08C44.34 -0.76 44.7 -0.44 45.24 -0.12C45.78 0.2 46.32 0.37 46.86 0.39C47.4 0.41 48.23 0.42 49.35 0.42L54.33 -2.1C54.37 -1.18 54.69 -0.6 55.29 -0.36C55.89 -0.12 57.35 0 59.67 0L59.67 -24.36C59.67 -26.6 59.57 -28.24 59.37 -29.28C59.25 -30.12 59.03 -30.68 58.71 -30.96C58.39 -31.24 57.87 -31.59 57.15 -32.01C56.43 -32.43 54.65 -32.64 51.81 -32.64L44.85 -31.26C45.17 -28.98 45.49 -27.7 45.81 -27.42C46.13 -27.14 46.59 -27 47.19 -27C47.79 -27 48.51 -27.06 49.35 -27.18L52.59 -27.6C52.95 -27.56 53.26 -27.58 53.52 -27.66C53.78 -27.74 53.99 -27.71 54.15 -27.57C54.31 -27.43 54.45 -27.34 54.57 -27.3C54.69 -27.26 54.75 -26.96 54.75 -26.4ZM48.99 -4.68C48.79 -4.68 48.69 -5.68 48.69 -7.68L48.75 -15.6C48.75 -16.08 49.37 -16.46 50.61 -16.74C51.85 -17.02 53.29 -17.18 54.93 -17.22L54.45 -15.84L54.45 -8.7L55.05 -6.96C51.05 -5.44 49.03 -4.68 48.99 -4.68Z M83.61 0L83.61 -24.48L83.07 -26.16L87.75 -27.54C88.23 -27.5 88.63 -27.44 88.95 -27.36C89.87 -27.12 90.43 -26.42 90.63 -25.26C90.75 -24.62 90.81 -21.54 90.81 -16.02L90.81 -3.6C90.81 -1.8 91.03 -0.75 91.47 -0.45C91.91 -0.15 93.49 0 96.21 0L96.21 -15.96C96.21 -19.72 96.15 -22.64 96.03 -24.72C95.95 -26.12 95.84 -27.12 95.7 -27.72C95.56 -28.32 95.34 -29 95.04 -29.76C94.74 -30.52 94.4 -31.02 94.02 -31.26C93.64 -31.5 93.04 -31.79 92.22 -32.13C91.4 -32.47 89.81 -32.64 87.45 -32.64L81.93 -30.48C81.21 -31.32 80.39 -31.89 79.47 -32.19C78.55 -32.49 77.21 -32.64 75.45 -32.64L70.95 -30.96C70.83 -31.56 70.47 -31.92 69.87 -32.04C69.27 -32.16 67.87 -32.22 65.67 -32.22L65.67 -3.6C65.67 -1.8 65.89 -0.75 66.33 -0.45C66.77 -0.15 68.33 0 71.01 0L71.01 -24.24L70.47 -25.98L75.81 -27.54C76.73 -27.54 77.33 -27.26 77.61 -26.7C77.77 -26.38 77.9 -26.07 78 -25.77C78.1 -25.47 78.17 -25.01 78.21 -24.39C78.25 -23.77 78.26 -23.22 78.24 -22.74C78.22 -22.26 78.21 -21.56 78.21 -20.64L78.21 -18.3L78.27 -3.6C78.27 -1.8 78.49 -0.75 78.93 -0.45C79.37 -0.15 80.93 0 83.61 0Z M113.25 -24.78L113.25 -23.34L113.73 -21.9C105.85 -21.74 101.91 -19.4 101.91 -14.88L101.91 -10.74C101.91 -6.9 102.01 -4.36 102.21 -3.12C102.37 -2.08 102.54 -1.4 102.72 -1.08C102.9 -0.76 103.26 -0.44 103.8 -0.12C104.34 0.2 104.88 0.37 105.42 0.39C105.96 0.41 106.79 0.42 107.91 0.42L112.89 -2.1C112.93 -1.18 113.25 -0.6 113.85 -0.36C114.45 -0.12 115.91 0 118.23 0L118.23 -24.36C118.23 -26.6 118.13 -28.24 117.93 -29.28C117.81 -30.12 117.59 -30.68 117.27 -30.96C116.95 -31.24 116.43 -31.59 115.71 -32.01C114.99 -32.43 113.21 -32.64 110.37 -32.64L103.41 -31.26C103.73 -28.98 104.05 -27.7 104.37 -27.42C104.69 -27.14 105.15 -27 105.75 -27C106.35 -27 107.07 -27.06 107.91 -27.18L111.15 -27.6C111.51 -27.56 111.82 -27.58 112.08 -27.66C112.34 -27.74 112.55 -27.71 112.71 -27.57C112.87 -27.43 113.01 -27.34 113.13 -27.3C113.25 -27.26 113.31 -26.96 113.31 -26.4ZM107.55 -4.68C107.35 -4.68 107.25 -5.68 107.25 -7.68L107.31 -15.6C107.31 -16.08 107.93 -16.46 109.17 -16.74C110.41 -17.02 111.85 -17.18 113.49 -17.22L113.01 -15.84L113.01 -8.7L113.61 -6.96C109.61 -5.44 107.59 -4.68 107.55 -4.68Z M129.63 0L129.63 -24.18L129.03 -25.86L133.95 -27.54C135.67 -27.54 136.69 -27.75 137.01 -28.17C137.33 -28.59 137.49 -29.94 137.49 -32.22L136.53 -32.28C135.57 -32.52 134.51 -32.64 133.35 -32.64L129.51 -30.36C129.51 -31.28 129.29 -31.82 128.85 -31.98C128.41 -32.14 126.87 -32.22 124.23 -32.22L124.23 -3.6C124.23 -1.8 124.46 -0.75 124.92 -0.45C125.38 -0.15 126.95 0 129.63 0Z M152.73 -24.78L152.73 -23.34L153.21 -21.9C145.33 -21.74 141.39 -19.4 141.39 -14.88L141.39 -10.74C141.39 -6.9 141.49 -4.36 141.69 -3.12C141.85 -2.08 142.02 -1.4 142.2 -1.08C142.38 -0.76 142.74 -0.44 143.28 -0.12C143.82 0.2 144.36 0.37 144.9 0.39C145.44 0.41 146.27 0.42 147.39 0.42L152.37 -2.1C152.41 -1.18 152.73 -0.6 153.33 -0.36C153.93 -0.12 155.39 0 157.71 0L157.71 -24.36C157.71 -26.6 157.61 -28.24 157.41 -29.28C157.29 -30.12 157.07 -30.68 156.75 -30.96C156.43 -31.24 155.91 -31.59 155.19 -32.01C154.47 -32.43 152.69 -32.64 149.85 -32.64L142.89 -31.26C143.21 -28.98 143.53 -27.7 143.85 -27.42C144.17 -27.14 144.63 -27 145.23 -27C145.83 -27 146.55 -27.06 147.39 -27.18L150.63 -27.6C150.99 -27.56 151.3 -27.58 151.56 -27.66C151.82 -27.74 152.03 -27.71 152.19 -27.57C152.35 -27.43 152.49 -27.34 152.61 -27.3C152.73 -27.26 152.79 -26.96 152.79 -26.4ZM147.03 -4.68C146.83 -4.68 146.73 -5.68 146.73 -7.68L146.79 -15.6C146.79 -16.08 147.41 -16.46 148.65 -16.74C149.89 -17.02 151.33 -17.18 152.97 -17.22L152.49 -15.84L152.49 -8.7L153.09 -6.96C149.09 -5.44 147.07 -4.68 147.03 -4.68Z"></path></g></g></svg>